<svg width="150" height="150" viewBox="0 0 150 150" fill="none" xmlns="http://www.w3.org/2000/svg">
<rect width="150" height="150" rx="30" fill="#F05133"/>
<path d="M120.577 70.7814L79.2175 29.4237C76.8361 27.0412 72.9732 27.0412 70.5897 29.4237L62.0021 38.0134L72.8959 48.9072C75.4279 48.0515 78.331 48.6258 80.3485 50.6443C82.3784 52.6752 82.9474 55.6031 82.0701 58.1443L92.5712 68.6443C95.1124 67.768 98.0423 68.335 100.071 70.367C102.906 73.202 102.906 77.7959 100.071 80.633C97.234 83.4691 92.6402 83.4691 89.8021 80.633C87.6701 78.499 87.1423 75.3649 88.2237 72.7381L78.4299 62.9453V88.7154C79.1206 89.0577 79.7732 89.5134 80.3485 90.0886C83.1835 92.9237 83.1835 97.5175 80.3485 100.356C77.5134 103.19 72.9165 103.19 70.0835 100.356C67.2485 97.5165 67.2485 92.9227 70.0835 90.0886C70.7846 89.3886 71.5959 88.8587 72.4619 88.5041V62.4938C71.5959 62.1392 70.7866 61.6144 70.0835 60.9093C67.9361 58.7629 67.4196 55.6103 68.5206 52.9732L57.7815 42.2319L29.4206 70.5897C27.0382 72.9742 27.0382 76.8371 29.4206 79.2196L70.7825 120.578C73.1639 122.961 77.0258 122.961 79.4103 120.578L120.577 79.4113C122.96 77.0288 122.96 73.1639 120.577 70.7814Z" fill="#F5F5F5"/>
</svg>
