<svg width="150" height="150" viewBox="0 0 150 150" fill="none" xmlns="http://www.w3.org/2000/svg">
<rect width="150" height="150" rx="30" fill="#79130D"/>
<path d="M95.96 100.11L116.79 118.6L75.8 115.38C83.83 110.53 90.46 104.73 95.42 100.12C95.5 100.14 95.59 100.14 95.68 100.14C95.77 100.15 95.86 100.13 95.96 100.11ZM119.02 111.16L122.86 60.9C120.96 65.75 117.96 71.4 114.07 77.43L119.02 111.16ZM97.35 98.97L118.14 117.42L112.59 79.67C108.01 86.47 102.52 93.43 97.35 98.97ZM73.07 116.96C68.59 119.44 63.98 121.42 59.32 122.86L107.22 119.64L73.08 116.96H73.07ZM33.07 92.75L45.62 122.07L55.95 87.86L33.07 92.75ZM58.99 86.12L93.93 97.34L85.01 62.01L58.99 86.12ZM86.97 58.51L119.54 56.33L94.08 35.53L86.97 58.51ZM105.49 26.46L84.12 26.36L93.62 33.01L105.49 26.46ZM26.82 80.32L26.12 101.16L31.25 91.81L26.82 80.32ZM38.5 88.69C42.56 88.95 46.67 88.05 50.81 86.24C53.6 84.92 56.49 83.25 59.4 81.28C63.56 78.34 67.76 74.66 71.99 70.47C87.19 55.4 93.44 38.54 86.79 31.83C85.2 30.23 82.93 29.41 80.04 29.4C71.28 29.36 58.2 35.95 47.04 47.01C36.39 57.58 29.47 70.12 29.44 78.97C29.43 82.12 30.3 84.59 32.03 86.34C33.56 87.89 35.74 88.52 38.5 88.69ZM70.23 116.46C70.71 116.21 71.18 115.96 71.65 115.71L57.58 88.58L47 123.63C47.09 123.62 47.8 123.53 47.8 123.53C48.72 123.41 49.64 123.28 50.54 123.12C56.35 122.13 62.11 120.31 67.64 117.72C68.51 117.32 69.38 116.9 70.23 116.46ZM98.94 94.08L99.27 93.7C99.5 93.43 99.74 93.15 99.97 92.87C99.97 92.87 100.69 92.01 100.97 91.67C101.44 91.1 101.91 90.52 102.38 89.93C102.81 89.39 103.24 88.85 103.68 88.29C104.13 87.71 104.58 87.13 105.03 86.54C106.05 85.2 107.07 83.8 108.17 82.25C109.33 80.61 110.45 78.96 111.51 77.34L109.61 76.18C104.55 73.09 94.39 66.86 87.71 62.75L96.36 97C97.17 96.12 98.02 95.16 98.94 94.08ZM123.37 38.94L96.48 35.16L122.12 56.13C123.02 53.16 123.61 50.28 123.86 47.56C123.9 47.18 123.92 46.8 123.94 46.41C123.96 46.05 123.97 45.7 123.98 45.34C124.05 43.02 123.84 40.87 123.37 38.94ZM113.03 75.72C113.1 75.63 113.17 75.54 113.25 75.42C113.76 74.7 114.49 73.51 115.3 72.08C117.55 68.11 120.33 62.44 121.49 58.27L88.05 60.5C95.03 64.79 105.22 71.03 110.29 74.13L112.99 75.78C113 75.76 113.02 75.74 113.03 75.72ZM72.94 115.3L73.04 115.24C80.34 111.2 86.86 106.22 94.16 99.11L58.61 87.64L72.94 115.3ZM26 104.91C26.16 109.54 27.14 113.36 28.92 116.3L30.58 96.52L26 104.91ZM32.48 95.22L30.56 118.04C33.29 121.61 36.94 123.21 42.36 123.21C42.91 123.21 43.47 123.19 44.08 123.17L43.12 120.79C41.05 115.63 35.14 100.94 32.48 95.22ZM122.97 37.53C122.58 36.32 122.07 35.21 121.47 34.21C119.05 30.18 114.87 27.6 109.03 26.54L96 33.74L122.97 37.53Z" fill="#F5F5F5"/>
</svg>
