<svg width="15" height="26" viewBox="0 0 15 26" fill="none" xmlns="http://www.w3.org/2000/svg">
<path fill-rule="evenodd" clip-rule="evenodd" d="M9.28225 1.07587C6.51344 1.54368 4.75856 3.53931 4.52294 6.488C4.49531 6.83431 4.47269 7.76262 4.47269 8.551V9.98431H2.74844C0.468936 9.98431 0.712873 9.67756 0.712873 12.5437C0.712873 15.4347 0.472186 15.1305 2.775 15.1503L4.47094 15.1648L4.484 20.4327L4.49706 25.7006L4.6405 25.8503L4.78388 25.9999H7.14775H9.51163L9.65325 25.8483L9.79494 25.6966V20.4304V15.1642L11.7847 15.1499C13.9277 15.1346 13.9119 15.1365 14.0523 14.8742C14.1023 14.7806 14.1162 14.2679 14.1162 12.5119V10.2692L13.9568 10.1267L13.7973 9.98431H11.7914H9.78563L9.80669 8.45843C9.8415 5.94462 9.85406 5.93206 12.3828 5.88618C14.4948 5.84793 14.2871 6.11768 14.2871 3.41281C14.2871 1.39493 14.2771 1.28074 14.0856 1.10231C13.9473 0.97343 10.0163 0.951868 9.28225 1.07587Z" fill="#D8DEF2"/>
</svg>
