<svg width="25" height="25" viewBox="0 0 25 25" fill="none" xmlns="http://www.w3.org/2000/svg">
<path d="M12.5 0C5.59645 0 0 5.58894 0 12.4775C0 17.9913 3.58323 22.6713 8.54868 24.3239C9.17217 24.4366 9.61538 23.7981 9.61538 23.3173C9.61538 23.0243 9.6229 22.6713 9.61538 21.6346C6.13732 22.3858 5.04808 19.9519 5.04808 19.9519C4.47716 18.5096 3.78606 18.0965 3.78606 18.0965C2.65174 17.3227 3.86869 17.3453 3.86869 17.3453C5.1232 17.4279 5.76923 18.5096 5.76923 18.5096C6.73077 20.1923 8.90174 20.027 9.61538 19.7115C9.61538 18.9453 9.69802 18.3894 9.90835 18.0364C5.97957 17.3453 3.83864 15.0766 3.84615 11.9366C3.85367 10.0811 4.49219 8.63882 5.52885 7.57212C5.07812 7.0012 4.77013 5.04808 5.69411 3.84615C8.01532 3.84615 9.39754 5.52133 9.39754 5.52133C9.39754 5.52133 10.4868 5.04808 12.4925 5.04808C14.5057 5.04808 15.5874 5.4988 15.5874 5.4988C15.5874 5.4988 16.9772 3.84615 19.2984 3.84615C20.2224 5.04808 19.9144 7.0012 19.5538 7.53456C20.5454 8.57873 21.1538 10.021 21.1538 11.9366C21.1538 15.0766 19.0204 17.3453 15.0992 18.0288C15.3471 18.4044 15.3846 18.9303 15.3846 19.7115C15.3846 21.3792 15.3846 22.9041 15.3846 23.3173C15.3846 23.7981 15.8203 24.4441 16.4588 24.3239C21.4243 22.6638 25 17.9913 25 12.4775C25 5.58894 19.4035 0 12.5 0Z" fill="#D8DEF2"/>
</svg>
