<svg width="25" height="25" viewBox="0 0 25 25" fill="none" xmlns="http://www.w3.org/2000/svg">
<path d="M5.81935 8.0603H0.800565C0.577823 8.0603 0.397339 8.24127 0.397339 8.46442V24.6232C0.397339 24.8464 0.577823 25.0273 0.800565 25.0273H5.81935C6.0421 25.0273 6.22258 24.8464 6.22258 24.6232V8.46442C6.22258 8.24127 6.0421 8.0603 5.81935 8.0603Z" fill="#D8DEF2"/>
<path d="M3.31177 0.0275879C1.48565 0.0275879 0 1.51489 0 3.34303C0 5.17197 1.48565 6.65984 3.31177 6.65984C5.13645 6.65984 6.62089 5.17189 6.62089 3.34303C6.62097 1.51489 5.13645 0.0275879 3.31177 0.0275879Z" fill="#D8DEF2"/>
<path d="M18.585 7.65894C16.5693 7.65894 15.0792 8.52738 14.1754 9.51415V8.46466C14.1754 8.24151 13.9949 8.06054 13.7722 8.06054H8.96582C8.74308 8.06054 8.56259 8.24151 8.56259 8.46466V24.6234C8.56259 24.8467 8.74308 25.0275 8.96582 25.0275H13.9736C14.1964 25.0275 14.3769 24.8467 14.3769 24.6234V16.6286C14.3769 13.9345 15.107 12.8849 16.9809 12.8849C19.0217 12.8849 19.1839 14.5675 19.1839 16.7672V24.6235C19.1839 24.8467 19.3644 25.0276 19.5871 25.0276H24.5968C24.8195 25.0276 25 24.8467 25 24.6235V15.7601C25 11.7542 24.2378 7.65894 18.585 7.65894Z" fill="#D8DEF2"/>
</svg>
