<svg width="23" height="18" viewBox="0 0 23 18" fill="none" xmlns="http://www.w3.org/2000/svg">
<path d="M22.4375 2.15137C21.6196 2.50537 20.7957 2.76782 19.8862 2.85327C20.7957 2.32837 21.5281 1.44336 21.8882 0.479005C20.9788 1.00391 20.0693 1.35791 19.0684 1.53491C18.1528 0.656006 16.9688 0.125 15.6931 0.125C13.2334 0.125 11.2253 2.06592 11.2253 4.44629C11.2253 4.79419 11.2253 5.14819 11.3169 5.41675C6.61719 5.41675 3.39453 2.76782 1.20947 0.125C0.751709 0.741455 0.568603 1.53491 0.568603 2.32837C0.568603 3.82373 1.39258 5.14819 2.57666 5.94165C1.84424 5.8562 1.11792 5.6792 0.568603 5.41675C0.568603 5.41675 0.568603 5.41675 0.568603 5.5022C0.568603 7.62012 2.1189 9.37793 4.12695 9.73194C3.76074 9.81738 3.39453 9.90894 2.93677 9.90894C2.66821 9.90894 2.39355 9.90894 2.1189 9.82349C2.66821 11.5874 5.21338 13.6138 7.21533 13.6138C5.66504 14.7551 4.22461 15.75 1.34375 15.75C0.977539 15.75 1.27051 15.75 0.5625 15.75C2.56445 16.9829 4.93872 17.3125 7.39844 17.3125C15.6931 17.3125 20.1609 10.7024 20.1609 4.97119C20.1609 4.79419 20.1609 4.62329 20.1609 4.44629C21.0703 3.82373 21.8027 3.03638 22.4375 2.15137Z" fill="#D8DEF2"/>
</svg>
