<svg width="80" height="80" viewBox="0 0 80 80" fill="none" xmlns="http://www.w3.org/2000/svg">
<path d="M39.3902 42.9534C36.1266 53.9044 33.4309 63.1032 33.2325 64.3529C32.6988 67.7155 27.4236 67.1744 27.7247 63.7603C27.8478 62.736 30.0304 55.1605 32.7056 46.1549C28.9289 47.8105 25.8226 48.8798 23.9069 49.1053C21.3069 49.5046 19.1175 48.1068 19.3364 45.981C19.3862 45.5662 19.5404 45.1685 19.7863 44.8212C20.0322 44.4738 20.3626 44.1867 20.7501 43.9838C21.1376 43.7809 21.5709 43.6681 22.0141 43.6547C22.4572 43.6413 22.8974 43.7277 23.2979 43.9067C24.94 43.6877 29.1546 42.058 34.6898 39.3524C37.4608 30.0698 40.3344 20.5746 41.7712 15.8593C42.9138 12.677 47.929 14.0233 47.0943 17.2893C45.3906 22.8937 43.4133 29.4256 41.4975 35.8223C43.8854 34.534 46.4169 33.0781 48.9553 31.5256C62.7898 23.1063 72.218 15.054 74.12 9.91994C74.8042 7.98741 74.3116 7.11777 73.299 6.37696C70.877 4.60547 63.4192 4.38645 49.7695 9.08251C29.312 16.1105 7.69139 29.7606 5.63196 36.8788C6.56931 36.9561 7.5956 36.8788 8.32769 37.5745C8.67071 37.8674 8.93095 38.236 9.08499 38.6471C9.23902 39.0583 9.282 39.499 9.21006 39.9297C9.13812 40.3604 8.95352 40.7675 8.67288 41.1142C8.39224 41.461 8.02438 41.7366 7.60244 41.9162C4.50303 42.9534 -1.02528 40.7438 0.165226 36.0285C1.53362 29.9539 10.3529 23.2995 17.4959 18.7516C26.9917 12.8006 37.1911 7.91063 47.8879 4.18032C57.6514 0.811269 70.5759 -2.22925 76.7132 2.24779C79.5799 4.35425 80.6199 7.4012 79.6415 10.7831C78.3826 15.1893 72.8406 22.9581 53.5873 34.9076C48.7842 37.8901 43.8649 40.6472 39.3902 42.9534Z" fill="#405ABA"/>
<path d="M79.0257 75.2009H5.95355V80H79.0257V75.2009Z" fill="#405ABA"/>
<path d="M58.5348 64.2924C59.0711 62.3946 58.0346 60.4875 56.2198 60.0329C54.4049 59.5782 52.4989 60.7481 51.9625 62.6459C51.4262 64.5438 52.4626 66.4508 54.2775 66.9055C56.0924 67.3601 57.9984 66.1902 58.5348 64.2924Z" fill="#405ABA"/>
</svg>
