<svg width="150" height="150" viewBox="0 0 150 150" fill="none" xmlns="http://www.w3.org/2000/svg">
<rect width="150" height="150" rx="30" fill="#720026"/>
<g clip-path="url(#clip0_505_23)">
<path d="M70.4652 27.3878L26.7621 71.0548C26.2036 71.6114 25.7604 72.2727 25.458 73.0009C25.1557 73.7291 25 74.5098 25 75.2983C25 76.0867 25.1557 76.8674 25.458 77.5956C25.7604 78.3238 26.2036 78.9851 26.7621 79.5417L70.4652 123.209C71.0227 123.767 71.6847 124.21 72.4135 124.512C73.1422 124.814 73.9234 124.97 74.7123 124.97C75.5013 124.97 76.2824 124.814 77.0112 124.512C77.74 124.21 78.402 123.767 78.9595 123.209L97.2831 104.9C99.3876 102.798 99.3876 99.3887 97.2831 97.2863C95.1791 95.1838 91.7677 95.1838 89.6633 97.2863L75.7721 111.166C75.1871 111.75 74.2996 111.75 73.7151 111.166L38.8149 76.2947C38.2299 75.7102 38.2299 74.8238 38.8149 74.2398L73.7151 39.368C74.3001 38.7835 75.1871 38.7835 75.7721 39.368L89.6633 53.2477C91.7677 55.3502 95.1791 55.3502 97.2831 53.2477C99.3871 51.1453 99.3876 47.7369 97.2831 45.6344L78.9615 27.3273C76.602 25.0303 72.8056 25.0493 70.4652 27.3878Z" fill="url(#paint0_linear_505_23)"/>
<path d="M70.4652 27.3878L26.7621 71.0548C26.2036 71.6114 25.7604 72.2727 25.458 73.0009C25.1557 73.7291 25 74.5098 25 75.2983C25 76.0867 25.1557 76.8674 25.458 77.5956C25.7604 78.3238 26.2036 78.9851 26.7621 79.5417L70.4652 123.209C71.0227 123.767 71.6847 124.21 72.4135 124.512C73.1422 124.814 73.9234 124.97 74.7123 124.97C75.5013 124.97 76.2824 124.814 77.0112 124.512C77.74 124.21 78.402 123.767 78.9595 123.209L97.2831 104.9C99.3876 102.798 99.3876 99.3887 97.2831 97.2863C95.1791 95.1838 91.7677 95.1838 89.6633 97.2863L75.7721 111.166C75.1871 111.75 74.2996 111.75 73.7151 111.166L38.8149 76.2947C38.2299 75.7102 38.2299 74.8238 38.8149 74.2398L73.7151 39.368C75.1711 38.1131 77.547 35.5701 81.036 34.9751C83.6289 34.5336 86.4633 35.5061 89.5403 37.8936L78.961 27.3273C76.6016 25.0303 72.8051 25.0488 70.4647 27.3873L70.4652 27.3878Z" fill="url(#paint1_linear_505_23)"/>
<path d="M101.513 93.2254C103.617 95.3279 107.029 95.3279 109.133 93.2254L122.65 79.7197C125 77.3718 125 73.5798 122.65 71.2329L109.015 57.6582C106.906 55.5582 103.494 55.5607 101.388 57.6647C99.2839 59.7671 99.2839 63.1756 101.388 65.278L110.597 74.4793C111.182 75.0638 111.182 75.9508 110.597 76.5348L101.513 85.6116C99.4089 87.714 99.4089 91.1229 101.513 93.2254Z" fill="url(#paint2_linear_505_23)"/>
<path d="M74.9306 87.307C81.4474 87.307 86.7303 82.0284 86.7303 75.5168C86.7303 69.0052 81.4474 63.7266 74.9306 63.7266C68.4138 63.7266 63.1309 69.0052 63.1309 75.5168C63.1309 82.0284 68.4138 87.307 74.9306 87.307Z" fill="url(#paint3_linear_505_23)"/>
</g>
<defs>
<linearGradient id="paint0_linear_505_23" x1="9199.09" y1="25.6186" x2="17504.1" y2="5094.32" gradientUnits="userSpaceOnUse">
<stop stop-color="#4285EB"/>
<stop offset="1" stop-color="#2EC7FF"/>
</linearGradient>
<linearGradient id="paint1_linear_505_23" x1="10313.2" y1="25.619" x2="6210.81" y2="21215.5" gradientUnits="userSpaceOnUse">
<stop stop-color="#29CDFF"/>
<stop offset="0.379" stop-color="#148EFF"/>
<stop offset="1" stop-color="#0A60FF"/>
</linearGradient>
<linearGradient id="paint2_linear_505_23" x1="3529.01" y1="-947.963" x2="-1808.04" y2="7393.77" gradientUnits="userSpaceOnUse">
<stop stop-color="#FA816E"/>
<stop offset="0.415" stop-color="#F74A5C"/>
<stop offset="1" stop-color="#F51D2C"/>
</linearGradient>
<linearGradient id="paint3_linear_505_23" x1="3278.77" y1="-1618.51" x2="1502.59" y2="5482.05" gradientUnits="userSpaceOnUse">
<stop stop-color="#FA8E7D"/>
<stop offset="0.513" stop-color="#F74A5C"/>
<stop offset="1" stop-color="#F51D2C"/>
</linearGradient>
<clipPath id="clip0_505_23">
<rect width="100" height="100" fill="white" transform="translate(25 25)"/>
</clipPath>
</defs>
</svg>
