<svg width="150" height="150" viewBox="0 0 150 150" fill="none" xmlns="http://www.w3.org/2000/svg">
<rect width="150" height="150" rx="30" fill="#404040"/>
<path d="M107.16 86.8979C110.719 86.4645 118.568 85.5316 119.965 87.3313C121.362 89.098 118.402 96.5314 117.071 99.8308C116.672 100.831 117.537 101.231 118.435 100.464C124.288 95.5311 125.818 85.231 124.621 83.7313C123.424 82.2652 113.147 80.998 106.894 85.3982C105.929 86.0978 106.096 87.0314 107.16 86.8979Z" fill="#FF9900"/>
<path d="M74.8989 104.931C88.5685 104.931 104.466 100.63 115.408 92.531C117.204 91.1977 115.641 89.1648 113.812 89.9979C101.539 95.1975 88.2025 97.7312 76.063 97.7312C58.07 97.7312 40.6756 92.7649 26.5745 84.5651C25.343 83.8318 24.4122 85.0983 25.4428 86.0318C38.4809 97.831 55.7418 104.931 74.8989 104.931Z" fill="#FF9900"/>
<path d="M53.1811 66.7656C53.1811 67.9991 53.3139 68.9987 53.5464 69.7321C53.8421 70.557 54.1981 71.359 54.6114 72.1317C54.7772 72.3986 54.844 72.6655 54.844 72.8988C54.844 73.2324 54.6445 73.5661 54.2117 73.899L52.1168 75.299C51.8175 75.4985 51.5176 75.599 51.252 75.599C50.919 75.599 50.5867 75.4318 50.2544 75.1319C49.806 74.6492 49.4049 74.1246 49.0566 73.5654C48.6848 72.9249 48.3407 72.2686 48.0253 71.5985C45.4316 74.6654 42.1719 76.1989 38.2476 76.1989C35.4537 76.1989 33.226 75.3988 31.5961 73.7993C29.9663 72.1991 29.1345 70.0651 29.1345 67.3992C29.1345 64.5655 30.1321 62.2657 32.161 60.5327C34.1899 58.7991 36.884 57.9329 40.3102 57.9329C41.4406 57.9329 42.6047 58.0327 43.8355 58.1992C45.0656 58.3663 46.3294 58.6326 47.66 58.9325V56.4992C47.66 53.9662 47.1275 52.1995 46.0962 51.1662C45.0326 50.1329 43.2362 49.6334 40.6755 49.6334C39.5115 49.6334 38.3143 49.7662 37.0835 50.0661C35.8608 50.3582 34.6604 50.7371 33.4916 51.1999C33.1134 51.3695 32.7245 51.5143 32.3275 51.6333C32.0949 51.6993 31.9284 51.733 31.795 51.733C31.3299 51.733 31.0967 51.4001 31.0967 50.6997V49.0665C31.0967 48.5333 31.1641 48.133 31.3299 47.9004C31.4957 47.6665 31.795 47.4333 32.2607 47.1994C33.4248 46.5995 34.8221 46.1 36.4513 45.6997C38.0811 45.2669 39.8114 45.0661 41.6401 45.0661C45.5981 45.0661 48.4911 45.9666 50.3535 47.7663C52.1828 49.566 53.1144 52.2999 53.1144 55.966V66.7656H53.1811ZM39.6779 71.8324C40.7753 71.8324 41.9063 71.6322 43.1034 71.2325C44.3005 70.8321 45.3649 70.0988 46.2627 69.0992C46.7952 68.4656 47.1942 67.7659 47.3937 66.9658C47.5933 66.1657 47.726 65.1991 47.726 64.0661V62.6661C46.7176 62.4202 45.6962 62.2312 44.6666 62.0999C43.6297 61.9676 42.5856 61.9006 41.5403 61.899C39.3119 61.899 37.6821 62.3324 36.5847 63.2323C35.4874 64.1328 34.9549 65.3993 34.9549 67.0656C34.9549 68.632 35.3539 69.7988 36.1857 70.5989C36.9838 71.432 38.1479 71.8324 39.6773 71.8324H39.6779ZM66.3843 75.4318C65.7858 75.4318 65.3867 75.3321 65.1205 75.0988C64.8549 74.8986 64.6217 74.4315 64.4222 73.7986L56.6066 48.0332C56.4071 47.3659 56.3073 46.9332 56.3073 46.6999C56.3073 46.1668 56.5729 45.8668 57.1054 45.8668H60.3644C60.9967 45.8668 61.4294 45.9666 61.6619 46.1998C61.9282 46.4 62.127 46.8671 62.3272 47.5L67.9151 69.5656L73.1032 47.5C73.269 46.8327 73.4685 46.4 73.7348 46.1998C74.001 45.9996 74.4661 45.8668 75.0653 45.8668H77.7258C78.3581 45.8668 78.7901 45.9666 79.0564 46.1998C79.3226 46.4 79.5552 46.8671 79.6879 47.5L84.9428 69.8325L90.6971 47.5C90.896 46.8327 91.1285 46.4 91.3617 46.1998C91.628 45.9996 92.0601 45.8668 92.6593 45.8668H95.7518C96.2843 45.8668 96.5836 46.1331 96.5836 46.6999C96.5836 46.8664 96.5506 47.0329 96.5168 47.2331C96.4649 47.5173 96.387 47.7962 96.2843 48.0662L88.2692 73.833C88.069 74.4996 87.8365 74.9324 87.5702 75.1325C87.3047 75.3327 86.8719 75.4662 86.3064 75.4662H83.4464C82.8142 75.4662 82.3814 75.3658 82.1159 75.1325C81.8503 74.8993 81.6171 74.4659 81.4843 73.7993L76.3292 52.3006L71.2071 73.7663C71.0406 74.4329 70.8411 74.8663 70.5748 75.0995C70.3093 75.3327 69.8435 75.4325 69.245 75.4325L66.3843 75.4318ZM109.122 76.3323C107.393 76.3323 105.663 76.1322 104 75.7324C102.337 75.3321 101.04 74.8986 100.176 74.3985C99.6431 74.0986 99.2777 73.7649 99.1443 73.4656C99.0149 73.1713 98.947 72.8536 98.9448 72.5321V70.8321C98.9448 70.1325 99.211 69.7988 99.7098 69.7988C99.9093 69.7988 100.109 69.8325 100.308 69.8986C100.508 69.966 100.807 70.0988 101.14 70.2322C102.315 70.7499 103.541 71.1408 104.799 71.3983C106.129 71.6653 107.426 71.7987 108.756 71.7987C110.852 71.7987 112.482 71.432 113.612 70.6987C114.743 69.9653 115.342 68.899 115.342 67.532C115.342 66.5991 115.042 65.8327 114.444 65.1991C113.845 64.5655 112.714 63.9993 111.084 63.4662L106.262 61.9657C103.834 61.1993 102.038 60.0663 100.941 58.5658C99.8433 57.0991 99.2777 55.4659 99.2777 53.7329C99.2777 52.3329 99.577 51.0994 100.176 50.0331C100.774 48.9668 101.572 48.0332 102.57 47.2998C103.568 46.5335 104.698 45.9666 106.029 45.5669C107.36 45.1665 108.756 45 110.22 45C110.952 45 111.717 45.0337 112.448 45.1335C113.213 45.2332 113.911 45.3667 114.61 45.5001C115.275 45.6666 115.907 45.8331 116.506 46.0326C117.104 46.2335 117.57 46.433 117.902 46.6332C118.368 46.9001 118.701 47.1664 118.901 47.4663C119.1 47.7333 119.2 48.0999 119.2 48.5664V50.1335C119.2 50.8339 118.934 51.2005 118.435 51.2005C118.169 51.2005 117.736 51.0671 117.171 50.8002C115.275 49.934 113.146 49.5006 110.785 49.5006C108.89 49.5006 107.393 49.8006 106.362 50.4335C105.331 51.0671 104.799 52.0337 104.799 53.4006C104.799 54.3335 105.131 55.1329 105.796 55.7665C106.462 56.4001 107.692 57.0337 109.454 57.5999L114.178 59.1004C116.572 59.8668 118.301 60.9338 119.333 62.3001C120.364 63.6663 120.863 65.2328 120.863 66.9665C120.863 68.3995 120.563 69.6997 119.998 70.8328C119.399 71.9659 118.601 72.9662 117.57 73.7663C116.539 74.5994 115.309 75.1993 113.878 75.6327C112.382 76.0991 110.818 76.3323 109.122 76.3323Z" fill="white"/>
</svg>
