<svg width="150" height="150" viewBox="0 0 150 150" fill="none" xmlns="http://www.w3.org/2000/svg">
<rect width="150" height="150" rx="30" fill="#CD6799"/>
<path d="M111.058 81.0862C107.571 81.1045 104.541 81.9442 102.004 83.1855C101.073 81.3418 100.142 79.6989 99.9774 78.494C99.7949 77.0884 99.5758 76.2304 99.7949 74.551C100.014 72.8716 101 70.4802 100.981 70.2976C100.963 70.1151 100.762 69.2571 98.7543 69.2388C96.7463 69.2206 95.0121 69.6222 94.8113 70.1516C94.6105 70.681 94.2271 71.8858 93.9716 73.1271C93.6247 74.9526 89.9555 81.4696 87.8562 84.8832C87.1808 83.5506 86.5966 82.3823 86.4688 81.4513C86.2863 80.0457 86.0672 79.1877 86.2863 77.5083C86.5053 75.8288 87.4911 73.4375 87.4728 73.2549C87.4546 73.0724 87.2538 72.2144 85.2457 72.1961C83.2377 72.1779 81.5035 72.5795 81.3027 73.1089C81.1019 73.6383 80.8828 74.8796 80.463 76.0844C80.0431 77.2892 75.1691 88.1691 73.8912 90.9804C73.2341 92.4225 72.6682 93.5725 72.2666 94.3575C72.2666 94.3575 72.2483 94.4123 72.1935 94.5035C71.8467 95.179 71.6459 95.5441 71.6459 95.5441C71.6459 95.5441 71.6459 95.5441 71.6459 95.5623C71.3721 96.0552 71.08 96.5116 70.934 96.5116C70.8244 96.5116 70.6236 95.1972 70.9705 93.4082C71.7007 89.6295 73.4349 83.7514 73.4166 83.5506C73.4166 83.4411 73.7452 82.4188 72.2848 81.8894C70.8609 81.3601 70.3498 82.2363 70.222 82.2363C70.0942 82.2363 70.003 82.5466 70.003 82.5466C70.003 82.5466 71.5911 75.9384 66.9727 75.9384C64.0884 75.9384 60.1088 79.0965 58.1373 81.9442C56.896 82.6196 54.249 84.0618 51.4195 85.6134C50.3425 86.2158 49.229 86.8183 48.1884 87.3842C48.1154 87.3111 48.0424 87.2199 47.9694 87.1468C42.3834 81.1775 32.0512 76.9606 32.4893 68.9468C32.6536 66.026 33.6576 58.359 52.3323 49.049C67.7028 41.4732 79.9336 43.5725 82.0512 48.2275C85.0815 54.8723 75.4977 67.2126 59.616 69.0015C53.5554 69.677 50.379 67.3403 49.5758 66.4641C48.7361 65.5514 48.6083 65.4966 48.298 65.6792C47.7868 65.953 48.1154 66.7744 48.298 67.2491C48.7726 68.4904 50.7259 70.681 54.03 71.758C56.9508 72.7073 64.0519 73.2367 72.6499 69.9143C82.2702 66.1903 89.7912 55.8398 87.5824 47.1687C85.3735 38.3699 70.7697 35.4674 56.9508 40.3779C48.7361 43.2987 39.8277 47.8989 33.4203 53.8865C25.808 61.0059 24.6032 67.1943 25.0961 69.7865C26.8668 78.9869 39.5539 84.9745 44.6287 89.4104C44.3732 89.5565 44.1359 89.6843 43.9351 89.7938C41.3976 91.0534 31.7226 96.11 29.3129 101.459C26.5747 107.519 29.751 111.864 31.8504 112.448C38.3673 114.255 45.0669 111.006 48.6631 105.639C52.2593 100.272 51.8211 93.2987 50.16 90.1041C50.1417 90.0676 50.1234 90.0311 50.0869 89.9946C50.7441 89.6112 51.4195 89.2096 52.0767 88.8263C53.3728 88.0596 54.6506 87.3476 55.7459 86.7635C55.1253 88.4612 54.6689 90.4875 54.4498 93.4082C54.176 96.8402 55.5816 101.294 57.4254 103.047C58.2468 103.814 59.2144 103.832 59.835 103.832C61.9891 103.832 62.9566 102.043 64.0336 99.9252C65.348 97.333 66.5345 94.321 66.5345 94.321C66.5345 94.321 65.0559 102.463 69.072 102.463C70.5323 102.463 72.011 100.564 72.6682 99.5966C72.6682 99.6149 72.6682 99.6149 72.6682 99.6149C72.6682 99.6149 72.7047 99.5601 72.7777 99.4323C72.9237 99.195 73.015 99.049 73.015 99.049C73.015 99.049 73.015 99.0307 73.015 99.0125C73.5992 97.9902 74.9135 95.6718 76.8668 91.8201C79.3859 86.8548 81.8138 80.6481 81.8138 80.6481C81.8138 80.6481 82.0329 82.1633 82.7813 84.6824C83.2195 86.1611 84.1322 87.7858 84.8624 89.3557C84.2782 90.1771 83.9131 90.6335 83.9131 90.6335C83.9131 90.6335 83.9131 90.6335 83.9314 90.6518C83.4568 91.2724 82.9456 91.9479 82.3797 92.605C80.39 94.9782 78.0168 97.6981 77.6882 98.4831C77.3049 99.4141 77.3962 100.09 78.1264 100.637C78.6558 101.039 79.605 101.094 80.5725 101.039C82.3615 100.911 83.6211 100.473 84.2417 100.199C85.2092 99.8522 86.341 99.3228 87.3998 98.5379C89.3531 97.0957 90.5397 95.0329 90.4301 92.313C90.3754 90.8161 89.8825 89.3192 89.2801 87.9135C89.4626 87.658 89.6269 87.4024 89.8095 87.1468C92.8945 82.6379 95.2859 77.6908 95.2859 77.6908C95.2859 77.6908 95.505 79.206 96.2534 81.7252C96.6185 83.003 97.367 84.3904 98.0241 85.7412C95.1216 88.0961 93.3326 90.8343 92.6937 92.6233C91.5437 95.9457 92.4382 97.4426 94.1359 97.7894C94.9026 97.9537 95.9978 97.5886 96.8011 97.2418C97.8233 96.9132 99.0281 96.3473 100.178 95.5076C102.131 94.0654 104.012 92.0574 103.902 89.3374C103.847 88.0961 103.519 86.873 103.062 85.6865C105.527 84.6642 108.703 84.0983 112.756 84.5729C121.445 85.5952 123.161 91.0169 122.832 93.2987C122.504 95.5806 120.678 96.8219 120.076 97.2053C119.474 97.5886 119.273 97.7164 119.328 97.9902C119.401 98.3918 119.693 98.3736 120.204 98.3005C120.916 98.1728 124.767 96.4568 124.932 92.2582C125.206 86.8913 120.094 81.0315 111.058 81.0862ZM44.0263 103.686C41.1421 106.826 37.126 108.012 35.3918 107.008C33.5298 105.931 34.26 101.294 37.8014 97.972C39.9555 95.9457 42.7302 94.0654 44.574 92.9154C44.9938 92.6598 45.6145 92.2947 46.3629 91.8383C46.4907 91.7653 46.5637 91.7288 46.5637 91.7288C46.7098 91.6375 46.8558 91.5463 47.0019 91.455C48.298 96.2012 47.0566 100.382 44.0263 103.686ZM65.0194 89.4104C64.0154 91.8566 61.9161 98.118 60.6382 97.7712C59.5429 97.4791 58.8675 92.7328 60.4192 88.0413C61.2041 85.6865 62.8653 82.8752 63.8328 81.7799C65.4027 80.0275 67.137 79.4433 67.5568 80.1552C68.0862 81.0862 65.6401 87.877 65.0194 89.4104ZM82.3432 97.6981C81.9234 97.9172 81.5218 98.0632 81.3392 97.9537C81.2114 97.8807 81.5218 97.5886 81.5218 97.5886C81.5218 97.5886 83.6941 95.252 84.5521 94.1932C85.0449 93.5725 85.6291 92.8423 86.2498 92.0209C86.2498 92.0939 86.2498 92.1852 86.2498 92.2582C86.2498 95.0512 83.5481 96.9314 82.3432 97.6981ZM95.7058 94.6496C95.3954 94.4305 95.4502 93.7003 96.4907 91.4185C96.8923 90.524 97.8416 89.0271 99.4663 87.585C99.6488 88.1691 99.7766 88.735 99.7583 89.2644C99.7401 92.7876 97.2209 94.1019 95.7058 94.6496Z" fill="white"/>
</svg>
