<svg width="150" height="150" viewBox="0 0 150 150" fill="none" xmlns="http://www.w3.org/2000/svg">
<rect width="150" height="150" rx="30" fill="#003876"/>
<path d="M74.5 31C51.375 31 37 36.9375 37 46.625V102.875C37 108.812 42 118.5 74.5 118.5C107 118.5 112 108.812 112 102.875V46.625C112 36.9375 97.625 31 74.5 31ZM74.5 37.25C96.0625 37.25 105.75 42.5625 105.75 46.625C105.75 50.6875 97.625 56 74.5 56C51.375 56 43.25 50.6875 43.25 46.625C43.25 42.5625 52.9375 37.25 74.5 37.25ZM74.5 112.25C51.375 112.25 43.25 107.25 43.25 102.875V94.125C48.5625 97.25 57.9375 100.062 74.5 100.062C91.0625 100.062 100.438 97.5625 105.75 94.125V102.875C105.75 107.25 97.625 112.25 74.5 112.25ZM74.5 93.5C51.375 93.5 43.25 88.5 43.25 84.125V75.375C48.5625 78.5 57.9375 81.3125 74.5 81.3125C91.0625 81.3125 100.438 78.8125 105.75 75.375V84.125C105.75 88.5 97.625 93.5 74.5 93.5ZM74.5 74.75C51.375 74.75 43.25 69.75 43.25 65.375V56C48.5625 59.125 57.9375 61.9375 74.5 61.9375C91.0625 61.9375 100.438 59.125 105.75 56V65.375C105.75 69.75 97.625 74.75 74.5 74.75Z" fill="#F5F5F5"/>
</svg>
