<svg width="150" height="150" viewBox="0 0 150 150" fill="none" xmlns="http://www.w3.org/2000/svg">
<rect width="150" height="150" rx="30" fill="#161D2D"/>
<path d="M73.8999 47.0181C57.7499 47.5314 52.9499 59.0681 51.8499 65.3181C53.2832 63.0014 57.7999 57.9182 64.4499 57.9182C72.1999 57.9182 78.0999 66.5682 81.6999 69.2682C86.0736 72.5485 94.8622 76.8797 106.4 73.3682C115.6 70.5682 119.867 60.8014 120.8 56.1681C116.35 62.2181 109.6 65.852 101.25 61.5681C95.4999 58.6181 91.1999 46.4682 73.8999 47.0181Z" fill="#07B6D5"/>
<path d="M51.05 74.468C34.9 74.9813 30.1 86.518 29 92.768C30.4333 90.4513 34.95 85.3681 41.6 85.3681C49.35 85.3681 55.25 94.0181 58.85 96.7181C63.2237 99.9984 72.0123 104.33 83.55 100.818C92.75 98.0181 97.0167 88.2513 97.95 83.618C93.5 89.668 86.75 93.3019 78.4 89.018C72.65 86.068 68.35 73.9181 51.05 74.468Z" fill="#07B6D5"/>
</svg>
