<svg width="25" height="25" viewBox="0 0 25 25" fill="none" xmlns="http://www.w3.org/2000/svg">
<path d="M7.25661 0C3.26022 0 0 3.26022 0 7.25661V17.7509C0 21.7398 3.26022 25 7.25661 25H17.7509C21.7398 25 25 21.7398 25 17.7434V7.25661C25 3.26022 21.7398 0 17.7434 0H7.25661ZM7.25661 1.92308H17.7434C20.7031 1.92308 23.0769 4.29688 23.0769 7.25661V17.7434C23.0769 20.7031 20.7031 23.0769 17.7509 23.0769H7.25661C4.29688 23.0769 1.92308 20.7031 1.92308 17.7509V7.25661C1.92308 4.29688 4.29688 1.92308 7.25661 1.92308ZM20.1923 3.84615C19.659 3.84615 19.2308 4.27434 19.2308 4.80769C19.2308 5.34105 19.659 5.76923 20.1923 5.76923C20.7257 5.76923 21.1538 5.34105 21.1538 4.80769C21.1538 4.27434 20.7257 3.84615 20.1923 3.84615ZM12.5 5.76923C8.79657 5.76923 5.76923 8.79657 5.76923 12.5C5.76923 16.2034 8.79657 19.2308 12.5 19.2308C16.2034 19.2308 19.2308 16.2034 19.2308 12.5C19.2308 8.79657 16.2034 5.76923 12.5 5.76923ZM12.5 7.69231C15.1668 7.69231 17.3077 9.83323 17.3077 12.5C17.3077 15.1668 15.1668 17.3077 12.5 17.3077C9.83323 17.3077 7.69231 15.1668 7.69231 12.5C7.69231 9.83323 9.83323 7.69231 12.5 7.69231Z" fill="#D8DEF2"/>
</svg>
