<?xml version="1.0" encoding="utf-8"?>
<!-- Generator: Adobe Illustrator 27.5.0, SVG Export Plug-In . SVG Version: 6.00 Build 0)  -->
<svg version="1.1" id="Capa_1" xmlns="http://www.w3.org/2000/svg" xmlns:xlink="http://www.w3.org/1999/xlink" x="0px" y="0px"
	 viewBox="0 0 2185 2061" style="enable-background:new 0 0 2185 2061;" xml:space="preserve">
<path style="fill:#1F2A50;" d="M1639.191,1674.082c-0.707,3.797-0.973,7.711-0.906,11.559c0.148,8.984,1.785,17.898,2.02,26.879
	c0.52,19.941-11.758,35.133-5.813,55.836c2.719,9.461,12.914,27.27,24.301,27.016c11.336-0.254,18.324-12.555,21.59-21.691
	c4.957-13.863,9.703-26.531,16.723-39.633c3.391-6.328,6.695-12.836,9.375-19.523c-24.535-10.883-46.449-23.754-62.074-35.945
	C1642.555,1677.133,1640.828,1675.629,1639.191,1674.082z"/>
<path style="fill:#1F2A50;" d="M1892.48,1698.84c2.754,2.953,5.434,5.98,8.242,8.879c8.008,8.27,18.293,16.992,29.559,14.684
	c9.336-1.914,15.711-11.363,16.723-20.832c1.008-9.477-2.293-18.879-6.379-27.492c-9.918-20.945-24.586-39.156-40.793-55.559
	c0.465,4.578,0.918,9.168,1.254,13.773C1902.711,1654.363,1901.043,1678.934,1892.48,1698.84z"/>
<path style="fill:#1F2A50;" d="M1904.43,1762.18c-3.215-18.164-9.805-35.449-18.059-51.887
	c-5.387,8.273-12.402,15.242-21.535,20.078c-8.949,4.738-19.059,7.73-29.914,9.32c6.848,15.059,14.18,29.902,22.148,44.406
	c5.531,10.09,13.152,21.215,24.629,21.961c9.512,0.617,18.152-6.813,21.629-15.68
	C1906.805,1781.504,1906.098,1771.566,1904.43,1762.18z"/>
<path style="fill:#1F2A50;" d="M1764.23,1734.398c0.316,1.496,0.637,2.984,0.977,4.469c4.012,17.969,8.781,35.773,14.289,53.348
	c3.438,10.977,8.711,23.387,19.82,26.383c9.195,2.48,19.141-3.098,24.293-11.113c5.156-8.008,6.426-17.895,6.645-27.422
	c0.309-13.273-1.219-26.438-3.883-39.395C1807.004,1742.164,1785.645,1739.586,1764.23,1734.398z"/>
<path style="fill:#EBF2E5;" d="M1607.527,1198.008c2.715,21.82,2.129,44.055-1.93,65.668c-3.898,20.777-8.844,41.746-8.191,63.027
	c1.137,37.313,21.805,78.73,36.902,112.34c3.977,8.852,8.137,17.699,12.504,26.5c31.801,64.063,74.477,125.477,134.633,164.887
	c15.164,9.906,31.961,18.539,50.051,19.406c19.117,0.918,37.809-7.055,53.16-18.488c3.797-2.832,9.016-8.824,14.922-15.547
	c-19.293-180.422-135.613-343.09-278.965-449.879c-3.773-2.813-8.055-5.949-12.648-9.113
	C1610.785,1169.914,1610.066,1184.145,1607.527,1198.008z"/>
<path style="fill:#C6CAD6;" d="M1886.371,1710.293c2.344-3.586,4.371-7.414,6.109-11.453c8.563-19.906,10.23-44.477,8.605-66.547
	c-0.336-4.605-0.789-9.195-1.254-13.773c-0.09-0.91-0.152-1.816-0.254-2.719c-5.906,6.723-11.125,12.715-14.922,15.547
	c-15.352,11.434-34.043,19.406-53.16,18.488c-18.09-0.867-34.887-9.5-50.051-19.406c-60.156-39.41-102.832-100.824-134.633-164.887
	c-4.367-8.801-8.527-17.648-12.504-26.5c-15.098-33.609-35.766-75.027-36.902-112.34c-0.652-21.281,4.293-42.25,8.191-63.027
	c4.059-21.613,4.645-43.848,1.93-65.668c-0.105,0.586-0.203,1.18-0.32,1.766c-1.148,5.902-2.609,11.734-4.273,17.363
	c-0.773,2.621-1.617,5.219-2.457,7.824c0.496,3.898,0.578,7.84,0.223,11.648c-1.504,16.25-8.898,31.254-14.367,46.625
	c-9.113,25.609-11.809,51.645-10.941,77.773c1.211,36.297,9.297,72.781,16.598,108.527c21.461,105.023,79.719,203.5,168.934,264.035
	c1.102,0.281,2.207,0.563,3.309,0.828c21.414,5.188,42.773,7.766,62.141,6.27c2.902-0.227,5.742-0.566,8.551-0.977
	c10.855-1.59,20.965-4.582,29.914-9.32C1873.969,1725.535,1880.984,1718.566,1886.371,1710.293z"/>
<path style="fill:#A1A8C3;" d="M1591.988,1469.535c-7.301-35.746-15.387-72.23-16.598-108.527
	c-0.867-26.129,1.828-52.164,10.941-77.773c5.469-15.371,12.863-30.375,14.367-46.625c0.355-3.809,0.273-7.75-0.223-11.648
	c-14.805,45.672-40.008,87.93-73.117,122.688c-3.504,16.031-7.5,31.969-11.887,47.82c16.883,28.813,32.344,58.457,46.305,88.789
	c0.484,1.066,0.977,2.129,1.465,3.195c15.551,34.109,29.211,69.082,40.883,104.699c9.715,29.637,12.289,60.398,35.066,81.93
	c1.637,1.547,3.363,3.051,5.215,4.496c15.625,12.191,37.539,25.063,62.074,35.945c17.266,7.66,35.832,14.305,54.441,19.047
	C1671.707,1673.035,1613.449,1574.559,1591.988,1469.535z"/>
<path style="fill:#203A73;" d="M1546.332,1109.641c8.922,22.617,14.066,46.727,15.16,71.02c0.234,5.285,0.344,10.824,2.93,15.449
	c2.125,3.805,6.5,5.938,11.688,6.965c9.426,1.859,21.551,0.078,27.82-1.906c1.102-0.352,2.188-0.844,3.277-1.395
	c0.117-0.586,0.215-1.18,0.32-1.766c2.539-13.863,3.258-28.094,0.438-41.199c-1.938-8.977-5.508-17.438-11.289-24.867
	c-11.805-15.152-31.277-22.801-50.602-22.563c0.016,0.227,0.031,0.457,0.039,0.68
	C1546.191,1109.922,1546.262,1109.781,1546.332,1109.641z"/>
<path style="fill:#1F2A50;" d="M1576.109,1203.074c-5.188-1.027-9.563-3.16-11.688-6.965c-2.586-4.625-2.695-10.164-2.93-15.449
	c-1.094-24.293-6.238-48.402-15.16-71.02c-0.07,0.141-0.141,0.281-0.219,0.418c0.367,6.203,0.719,12.402,0.949,18.609
	c0.902,24.52,0.738,49.07-0.449,73.582c-0.996,20.535-2.645,41.035-5.09,61.465c-3.359,28.141-8.105,56.16-14.164,83.934
	c33.109-34.758,58.313-77.016,73.117-122.688c0.84-2.605,1.684-5.203,2.457-7.824c1.664-5.629,3.125-11.461,4.273-17.363
	c-1.09,0.551-2.176,1.043-3.277,1.395C1597.66,1203.152,1585.535,1204.934,1576.109,1203.074z"/>
<path style="fill:#1F2A50;" d="M539.852,1678.578c-15.625,12.191-37.539,25.063-62.07,35.945c2.676,6.688,5.984,13.195,9.371,19.523
	c7.02,13.102,11.766,25.77,16.723,39.633c3.266,9.137,10.254,21.438,21.594,21.691c11.387,0.254,21.582-17.555,24.297-27.016
	c5.941-20.703-6.332-35.895-5.813-55.836c0.238-8.98,1.871-17.895,2.023-26.879c0.063-3.848-0.203-7.762-0.91-11.559
	C543.43,1675.629,541.707,1677.133,539.852,1678.578z"/>
<path style="fill:#1F2A50;" d="M283.172,1632.293c0.34-4.605,0.793-9.195,1.258-13.773c-16.207,16.402-30.875,34.613-40.797,55.559
	c-4.082,8.613-7.387,18.016-6.375,27.492c1.008,9.469,7.387,18.918,16.719,20.832c11.273,2.309,21.555-6.414,29.559-14.684
	c2.809-2.898,5.488-5.926,8.242-8.879C283.215,1678.934,281.551,1654.363,283.172,1632.293z"/>
<path style="fill:#1F2A50;" d="M297.887,1710.293c-8.246,16.438-14.84,33.723-18.059,51.887c-1.664,9.387-2.371,19.324,1.105,28.199
	c3.473,8.867,12.117,16.297,21.625,15.68c11.48-0.746,19.098-11.871,24.637-21.961c7.961-14.504,15.297-29.348,22.148-44.406
	c-10.859-1.59-20.973-4.582-29.918-9.32C310.289,1725.535,303.277,1718.566,297.887,1710.293z"/>
<path style="fill:#1F2A50;" d="M357.887,1740.668c-2.664,12.957-4.188,26.121-3.883,39.395c0.223,9.527,1.488,19.414,6.644,27.422
	c5.156,8.016,15.098,13.594,24.293,11.113c11.109-2.996,16.383-15.406,19.82-26.383c5.508-17.574,10.277-35.379,14.297-53.348
	c0.332-1.484,0.652-2.973,0.973-4.469C398.617,1739.586,377.258,1742.164,357.887,1740.668z"/>
<path style="fill:#EBF2E5;" d="M302.652,1631.48c15.348,11.438,34.043,19.41,53.16,18.492c18.09-0.867,34.891-9.5,50.051-19.41
	c60.152-39.41,102.828-100.816,134.633-164.879c4.367-8.801,8.531-17.648,12.504-26.5c15.098-33.609,35.762-75.027,36.902-112.344
	c0.652-21.281-4.293-42.25-8.195-63.023c-3.457-18.422-4.344-37.289-2.875-55.973c-4.113-16.84-6.023-34.801-2.535-51.035
	c-4.598,3.164-8.875,6.301-12.648,9.113c-142.578,106.211-258.398,267.695-278.633,446.949
	C292.039,1620.793,298.289,1628.23,302.652,1631.48z"/>
<path style="fill:#C6CAD6;" d="M595.32,1469.676c7.305-35.754,15.391-72.23,16.598-108.535c0.867-26.125-1.828-52.16-10.941-77.77
	c-5.473-15.371-12.863-30.383-14.371-46.625c-0.125-1.367-0.195-2.746-0.219-4.129c-1.805-5.121-3.519-10.273-5.063-15.48
	c-0.813-2.754-1.563-5.57-2.269-8.406c-0.074-0.293-0.148-0.586-0.223-0.887c-1.469,18.684-0.582,37.551,2.875,55.973
	c3.902,20.773,8.848,41.742,8.195,63.023c-1.141,37.316-21.805,78.734-36.902,112.344c-3.973,8.852-8.137,17.699-12.504,26.5
	c-31.805,64.063-74.48,125.469-134.633,164.879c-15.16,9.91-31.961,18.543-50.051,19.41c-19.117,0.918-37.813-7.055-53.16-18.492
	c-4.363-3.25-10.613-10.688-17.637-18.609c-0.215,1.879-0.395,3.762-0.586,5.648c-0.465,4.578-0.918,9.168-1.258,13.773
	c-1.621,22.07,0.043,46.641,8.605,66.547c1.738,4.039,3.77,7.867,6.109,11.453c5.391,8.273,12.402,15.242,21.539,20.078
	c8.945,4.738,19.059,7.73,29.918,9.32c2.801,0.41,5.641,0.75,8.543,0.977c19.371,1.496,40.73-1.082,62.145-6.27
	c2.863-0.699,5.723-1.441,8.582-2.223C516.566,1671.516,574.043,1573.816,595.32,1469.676z"/>
<path style="fill:#A1A8C3;" d="M586.387,1232.617c0.023,1.383,0.094,2.762,0.219,4.129c1.508,16.242,8.898,31.254,14.371,46.625
	c9.113,25.609,11.809,51.645,10.941,77.77c-1.207,36.305-9.293,72.781-16.598,108.535c-21.277,104.141-78.754,201.84-166.707,262.5
	c16.832-4.617,33.531-10.723,49.168-17.652c24.531-10.883,46.445-23.754,62.07-35.945c1.855-1.445,3.578-2.949,5.215-4.496
	c22.781-21.531,25.359-52.293,35.066-81.93c11.668-35.617,25.336-70.59,40.887-104.699c0.484-1.066,0.977-2.129,1.465-3.195
	c13.086-28.438,27.566-56.23,43.227-83.336c-5.594-19.723-10.438-39.613-14.648-59.621
	C622.633,1309.797,600.5,1272.633,586.387,1232.617z"/>
<path style="fill:#203A73;" d="M578.832,1207.844c0.074,0.301,0.148,0.594,0.223,0.887c1.969,0.777,4.148,1.125,6.269,1.012
	c6.414-0.352,15.375-3.73,21.965-8.516c3.121-2.266,5.707-4.852,7.242-7.574c2.168-3.863,2.68-8.395,3.273-12.777
	c2.598-19.184,7.668-38.02,14.957-55.957c0.211-5.156,0.574-10.301,0.883-15.453c-17.785,0.926-35.184,8.512-46.059,22.477
	c-5.785,7.43-9.355,15.883-11.289,24.867C572.809,1173.043,574.719,1191.004,578.832,1207.844z"/>
<path style="fill:#1F2A50;" d="M632.582,1131.906c0.074-2.324,0.082-4.66,0.18-6.988c-7.289,17.938-12.359,36.773-14.957,55.957
	c-0.594,4.383-1.106,8.914-3.273,12.777c-1.535,2.723-4.121,5.309-7.242,7.574c-6.59,4.785-15.551,8.164-21.965,8.516
	c-2.121,0.113-4.301-0.234-6.269-1.012c0.707,2.836,1.457,5.652,2.269,8.406c1.543,5.207,3.258,10.359,5.063,15.48
	c14.113,40.016,36.246,77.18,64.676,108.684c-3.144-14.91-5.902-29.879-8.269-44.91c-1.715-10.871-3.289-21.762-4.594-32.676
	C632.973,1219.969,631.125,1175.895,632.582,1131.906z"/>
<path style="fill:#1F2A50;" d="M843.273,1707.469c2.145,4.078,4.367,8.117,6.758,12.07
	c54.078,51.715,122.715,88.082,195.934,103.609c44.465,9.434,90.5,11.164,135.566,5.395c27.883-7.715,54.48-19.484,78.605-35.719
	c31.883-21.438,58.48-51.34,76.359-85.375C1225.98,1748.645,953.84,1748.648,843.273,1707.469z"/>
<path style="fill:#EBF2E5;" d="M1547.063,1128.668c-57.539,25.898-118.227,45.348-180.215,58.719
	c-39.934,8.613-80.438,14.77-121.18,18.582c-95.484,8.922-193.102,4.102-288.266-6.922c-112.945-13.09-221.027-28.648-324.82-67.141
	c-1.457,43.988,0.391,88.063,5.617,131.809c1.305,10.914,2.879,21.805,4.594,32.676c44.707,35.145,90.465,68.961,140.234,96.316
	c129.805,71.344,307.969,104.215,454.051,66.551c1.84-0.477,3.68-0.961,5.512-1.461c67.719-18.391,141.313-88.766,192.047-134.875
	c40.652-36.953,78.117-77.402,111.977-120.672C1547.801,1177.738,1547.965,1153.188,1547.063,1128.668z"/>
<path style="fill:#C6CAD6;" d="M998.406,1669.434c-82.406-8.313-163.84-27.035-241.465-55.941
	c13.555,22.941,28.109,45.387,43.773,67.191c7.41,10.316,22.297,19.234,42.559,26.785c110.566,41.18,382.707,41.176,493.223-0.02
	c20.242-7.547,35.109-16.457,42.516-26.766c14.449-20.109,27.91-40.793,40.563-61.875c-12.328,4.359-24.719,8.555-37.223,12.406
	C1258.566,1669.336,1127.273,1682.441,998.406,1669.434z"/>
<path style="fill:#C6CAD6;" d="M1541.523,1263.715c2.445-20.43,4.094-40.93,5.09-61.465
	c-33.859,43.27-71.324,83.719-111.977,120.672c-50.734,46.109-124.328,116.484-192.047,134.875c-1.832,0.5-3.672,0.984-5.512,1.461
	c-146.082,37.664-324.246,4.793-454.051-66.551c-49.77-27.355-95.527-61.172-140.234-96.316c2.367,15.031,5.125,30,8.269,44.91
	c4.211,20.008,9.055,39.898,14.648,59.621c20.281,71.52,49.582,140.898,87.422,206.16c26.508,10.051,53.457,18.957,80.777,26.598
	c123.59,34.57,253.781,44.387,381.145,28.598c70.922-8.789,140.992-25.391,208.262-49.664
	c40.387-68.516,71.262-141.672,92.156-217.145c4.387-15.852,8.383-31.789,11.887-47.82
	C1533.418,1319.875,1538.164,1291.855,1541.523,1263.715z"/>
<path style="fill:#203A73;" d="M1215.055,1662.277c-127.363,15.789-257.555,5.973-381.145-28.598
	c-27.32-7.641-54.27-16.547-80.777-26.598c1.246,2.145,2.543,4.273,3.809,6.41c77.625,28.906,159.059,47.629,241.465,55.941
	c128.867,13.008,260.16-0.098,383.945-38.219c12.504-3.852,24.895-8.047,37.223-12.406c1.246-2.066,2.52-4.117,3.742-6.195
	C1356.047,1636.887,1285.977,1653.488,1215.055,1662.277z"/>
<path style="fill:#A1A8C3;" d="M632.582,1131.906c103.793,38.492,211.875,54.051,324.82,67.141
	c95.164,11.023,192.781,15.844,288.266,6.922c40.742-3.813,81.246-9.969,121.18-18.582c61.988-13.371,122.676-32.82,180.215-58.719
	c-0.23-6.207-0.582-12.406-0.949-18.609c-0.008-0.223-0.023-0.453-0.039-0.68c-0.336-5.648-0.672-11.297-1.117-16.941
	c-146.668,14.332-763.527,14.332-910.184,0c-0.453,5.672-0.793,11.348-1.129,17.027c-0.309,5.152-0.672,10.297-0.883,15.453
	C632.664,1127.246,632.656,1129.582,632.582,1131.906z"/>
<path style="fill:#203A73;" d="M440.098,646.488c5.07-22.133,12.906-59.777,14.438-65.09c7.582-26.324,16.617-52.266,27.195-77.539
	c1.848-4.41,4.164-10.68,6.992-17.371c9.547-32.883,21.035-65.031,34.32-96.016c1.488-3.465,2.992-6.926,4.512-10.383
	c-24.809,5.387-45.977,12.105-54.504,19.234c-13.348,11.16-22.184,25.813-30.188,40.434
	c-34.191,62.488-52.836,127.359-57.84,192.644c11.91,8.34,24.348,15.926,37.324,22.484
	C429.566,658.531,438.293,654.367,440.098,646.488z"/>
<path style="fill:#203A73;" d="M1736.859,439.758c-8-14.621-16.832-29.273-30.188-40.434c-8.535-7.137-29.73-13.859-54.563-19.246
	c1.551,3.445,3.078,6.906,4.57,10.395c19.867,46.32,35.77,95.223,47.027,145.344c4.844,7.082,9.566,12.117,12.586,20.602
	c7.414,20.848,13.645,41.879,21.27,62.57c2.332,6.328,4.793,12.621,7.461,18.867c18.508-7.75,34.098-18.5,46.875-32.113
	C1784.324,549.484,1766.395,493.73,1736.859,439.758z"/>
<path style="fill:#1F2A50;" d="M1796.141,668.07c-0.023-20.805-1.453-41.598-4.242-62.328
	c-12.777,13.613-28.367,24.363-46.875,32.113c-2.668-6.246-5.129-12.539-7.461-18.867c-7.625-20.691-13.855-41.723-21.27-62.57
	c-3.02-8.484-7.742-13.52-12.586-20.602c9.5,42.285,15.676,85.438,18.105,128.644c4.047,72.195-2.363,144.543-21.305,213.246
	c-7.887,28.609-18.754,59.293-32.875,88.981c26.441-7.394,49.297-16.125,57.836-24.332c12.547-12.055,20.352-27.285,27.32-42.426
	C1787.996,823.457,1801.391,745.152,1796.141,668.07z"/>
<path style="fill:#1F2A50;" d="M457.012,687.059c1.727-67.691,12.852-135.586,31.711-200.57c-2.828,6.691-5.145,12.961-6.992,17.371
	c-10.578,25.273-19.613,51.215-27.195,77.539c-1.531,5.313-9.367,42.957-14.438,65.09c-1.805,7.879-10.531,12.043-17.75,8.398
	c-12.977-6.559-25.414-14.145-37.324-22.484c-0.91,11.883-1.422,23.773-1.438,35.668c-5.254,77.082,8.145,155.387,43.352,231.859
	c6.969,15.141,14.773,30.371,27.316,42.426c8.539,8.207,31.398,16.938,57.844,24.332c-14.125-29.688-24.992-60.371-32.879-88.981
	C462.258,816.172,455.367,751.711,457.012,687.059z"/>
<path style="fill:#EBF2E5;" d="M1703.707,535.816c-11.258-50.121-27.16-99.023-47.027-145.344c-1.492-3.488-3.02-6.949-4.57-10.395
	c-20.461-45.559-45.973-87.469-87.086-118.902c-72.703-55.574-868.621-53.762-950.316,0
	c-43.254,28.465-66.949,72.961-87.152,118.914c-1.52,3.457-3.023,6.918-4.512,10.383c-13.285,30.984-24.774,63.133-34.32,96.016
	c-18.859,64.984-29.984,132.879-31.711,200.57c12.719,14.746,26.598,28.496,41.426,41.106
	c21.277,18.098,47.324,46.512,75.832,26.824c22.34-15.426,17.945-43.313,20.07-67.152c2.242-25.16,4.777-50.637,10.668-75.25
	c3.492-14.605,7.672-29.07,12.496-43.313c11.402-58.824,35.133-114.684,76.844-158.66c10.785-11.371,205.391-15.465,395.516-14.496
	c190.125-0.969,384.73,3.125,395.516,14.496c35.176,37.086,57.539,82.637,70.539,131.273c3.156,6.359,6.141,12.801,8.883,19.348
	c10.094,24.133,16.484,47.883,19.969,73.684l11.277,83.707c1.941,14.371,17.145,22.981,30.379,17.059
	c26.379-11.801,51.074-26.543,72.375-46.129c8.785-8.078,16.367-16.461,23.012-25.094
	C1719.383,621.254,1713.207,578.102,1703.707,535.816z"/>
<path style="fill:#C6CAD6;" d="M1721.813,664.461c-6.645,8.633-14.227,17.016-23.012,25.094
	c-21.301,19.586-45.996,34.328-72.375,46.129c-13.234,5.922-28.438-2.688-30.379-17.059l-11.277-83.707
	c-3.484-25.801-9.875-49.551-19.969-73.684c-2.742-6.547-5.727-12.988-8.883-19.348c8.629,32.309,13.145,65.973,14.461,99.453
	c3.363,18.07,5.434,36.535,6.152,55.066c2.824,73.055-17.922,244.629-63.289,266.328c-50.891,24.336-753.715,1.047-804.211-3.094
	c-41.961-3.441-55.938-25.691-68.449-65.734c-10.781-34.523-17.258-71.176-19.078-108.004c-13.254-65.301-18.227-143.258-4-216.629
	c-4.824,14.242-9.004,28.707-12.496,43.313c-5.891,24.613-8.426,50.09-10.668,75.25c-2.125,23.84,2.27,51.727-20.07,67.152
	c-28.508,19.688-54.555-8.727-75.832-26.824c-14.828-12.609-28.707-26.359-41.426-41.106
	c-1.645,64.652,5.246,129.113,22.207,190.648c7.887,28.609,18.754,59.293,32.879,88.981c22.117,46.496,52.289,90.527,91.996,120.133
	c2.777,2.066,13.516,3.941,30.68,5.617c146.656,14.332,763.516,14.332,910.184,0c17.16-1.676,27.902-3.551,30.676-5.617
	c39.707-29.605,69.875-73.637,92-120.133c14.121-29.688,24.988-60.371,32.875-88.981
	C1719.449,809.004,1725.859,736.656,1721.813,664.461z"/>
<path style="fill:#A1A8C3;" d="M1493.906,936.176c-12.051,7.113-210.289,10.582-404.043,10.41
	c-193.754,0.172-391.996-3.297-404.043-10.41c-20.844-12.313-48.481-72.25-64.316-150.273c1.82,36.828,8.297,73.481,19.078,108.004
	c12.512,40.043,26.488,62.293,68.449,65.734c50.496,4.141,753.32,27.43,804.211,3.094c45.367-21.699,66.113-193.273,63.289-266.328
	c-0.719-18.531-2.789-36.996-6.152-55.066C1575.895,780.836,1526.551,916.894,1493.906,936.176z"/>
<path style="fill:#1F2A50;" d="M1570.379,641.34c-1.316-33.48-5.832-67.144-14.461-99.453c-13-48.637-35.363-94.188-70.539-131.273
	c-10.785-11.371-205.391-15.465-395.516-14.496c-190.125-0.969-384.73,3.125-395.516,14.496
	c-41.711,43.977-65.441,99.836-76.844,158.66c-14.227,73.371-9.254,151.328,4,216.629c15.836,78.023,43.473,137.961,64.316,150.273
	c12.047,7.113,210.289,10.582,404.043,10.41c193.754,0.172,391.992-3.297,404.043-10.41
	C1526.551,916.894,1575.895,780.836,1570.379,641.34z"/>
<path style="fill:#203A73;" d="M685.859,628.66c-6.141,30.84-11.141,63.57-0.371,93.113c17.281,47.387,69.109,51.375,112.555,49.574
	c1.703-0.07,3.418-0.168,5.121-0.238c-6.926-13.289-10.535-28.598-11.445-43.223c-2.25-36.07,1.68-175.285,19.848-195.031
	c26.5-28.797,83.652-29.102,110.426,0c18.168,19.754,22.098,158.961,19.848,195.031c-0.734,11.762-3.219,23.953-7.758,35.191
	c66.047-5.352,132.195-12.813,197.418-23.227c35.516-5.672,70.871-12.32,106.043-19.828c-1.363-45.043,3.152-168.648,20.191-187.168
	c26.5-28.797,83.648-29.102,110.426,0c12.984,14.117,18.691,89.23,20.078,144.121c16.914-8.231,32.961-18.621,48.008-32.539
	c30.836-28.535,56.305-74.883,36-116.613c-11.508-23.672-33.707-40.797-57.848-51.289c-24.137-10.488-50.367-15.059-76.336-19.309
	c-171.695-28.105-348.422-46.078-518.852-11.098c-21.227,4.355-44.723,9.152-63.715,20.094
	c-16.738,9.645-25.207,27.844-33.645,45.023C703.727,548.156,693.852,588.523,685.859,628.66z"/>
<path style="fill:#3EC0F0;" d="M921.992,532.856c-26.773-29.102-83.926-28.797-110.426,0
	c-18.168,19.746-22.098,158.961-19.848,195.031c0.91,14.625,4.52,29.934,11.445,43.223c5.5,10.563,13.094,19.859,23.117,26.516
	c21.746,14.445,58.551,14.91,80.996,0c12.492-8.301,21.211-20.695,26.805-34.547c4.539-11.238,7.023-23.43,7.758-35.191
	C944.09,691.816,940.16,552.609,921.992,532.856z"/>
<path style="fill:#3EC0F0;" d="M1257.734,532.856c-17.039,18.519-21.555,142.125-20.191,187.168c0.09,2.981,0.207,5.625,0.348,7.863
	c1.633,26.254,11.93,54.707,34.559,69.738c21.742,14.445,58.547,14.91,80.992,0c22.637-15.031,32.93-43.484,34.566-69.738
	c0.641-10.289,0.781-28.996,0.23-50.91c-1.387-54.891-7.094-130.004-20.078-144.121
	C1341.383,503.754,1284.234,504.059,1257.734,532.856z"/>
<path style="fill:#203A73;" d="M1045.965,1823.148c-73.219-15.527-141.855-51.895-195.934-103.609
	c17.535,29.012,41.5,54.414,69.563,73.285c49.734,33.461,110.004,47.961,170.262,47.172c31.043,0.406,62.078-3.246,91.676-11.453
	C1136.465,1834.313,1090.43,1832.582,1045.965,1823.148z"/>
</svg>
