<svg width="162" height="20" viewBox="0 0 162 20" fill="none" xmlns="http://www.w3.org/2000/svg">
<path fill-rule="evenodd" clip-rule="evenodd" d="M50.0673 8.4252H47.1601V14.0511C47.1601 15.5585 48.1561 15.5315 50.0673 15.4508V17.7388C46.1642 18.1964 44.6299 17.1197 44.6299 14.078V8.45212H42.4764V6.00259H44.6299V2.85321L47.1601 2.0995V6.00259H50.0673V8.4252ZM61.1574 5.97568H63.6877V17.7119H61.1574V16.0161C60.2691 17.2543 58.8694 18.008 57.039 18.008C53.8358 18.008 51.1978 15.3162 51.1978 11.8438C51.1978 8.34445 53.8627 5.67958 57.039 5.67958C58.8694 5.67958 60.2691 6.43328 61.1574 7.64459V5.97568ZM57.4428 15.6123C59.5693 15.6123 61.1574 14.051 61.1574 11.8438C61.1574 9.66343 59.5693 8.07527 57.4428 8.07527C57.4428 8.07527 53.7281 9.63651 53.7281 11.8438C53.7281 14.051 55.3432 15.6123 57.4428 15.6123ZM67.9138 4.22602C67.0255 4.22602 66.2987 3.47232 66.2987 2.61095C66.2987 1.72266 67.0255 0.995873 67.9138 0.995873C68.8021 0.995873 69.5289 1.72266 69.5289 2.61095C69.5558 3.47232 68.8021 4.22602 67.9138 4.22602ZM66.6487 17.7119V5.97568H69.179V17.7119H66.6487ZM72.113 17.7119V0.565186H74.6433V17.7119H72.113ZM91.117 5.97568H93.7819L90.0941 17.7119H87.6177L85.1682 9.79802L82.6917 17.7119H80.2153L76.5275 5.97568H79.1924L81.4804 14.078L83.9569 5.97568H86.3795L88.829 14.078L91.117 5.97568ZM96.9582 4.22602C96.0699 4.22602 95.3431 3.47232 95.3431 2.61095C95.3431 1.72266 96.0699 0.995873 96.9582 0.995873C97.8465 0.995873 98.5733 1.72266 98.5733 2.61095C98.5733 3.47232 97.8465 4.22602 96.9582 4.22602ZM95.6661 17.7119V5.97568H98.1964V17.7119H95.6661ZM107.322 5.67958C109.96 5.67958 111.844 7.45617 111.844 10.5248V17.7388H109.313V10.7671C109.313 8.99048 108.291 8.04836 106.676 8.04836C105.007 8.04836 103.688 9.04432 103.688 11.44V17.7388H101.157V6.00259H103.688V7.51C104.468 6.27177 105.733 5.67958 107.322 5.67958ZM123.849 1.29196H126.379V17.7388H123.849V16.043C122.961 17.2812 121.561 18.0349 119.731 18.0349C116.527 18.0349 113.89 15.3431 113.89 11.8707C113.89 8.37137 116.554 5.7065 119.731 5.7065C121.561 5.7065 122.961 6.4602 123.849 7.67151V1.29196ZM120.161 15.6123C122.288 15.6123 123.876 14.051 123.876 11.8438C123.876 9.66343 122.288 8.07527 120.161 8.07527C118.062 8.07527 116.447 9.63651 116.447 11.8438C116.447 14.051 118.035 15.6123 120.161 15.6123ZM134.885 18.0349C131.332 18.0349 128.694 15.3431 128.694 11.8707C128.694 8.37137 131.359 5.7065 134.885 5.7065C137.2 5.7065 139.192 6.89089 140.134 8.74822L137.954 10.0134C137.443 8.90973 136.285 8.20986 134.885 8.20986C132.813 8.20986 131.252 9.77111 131.252 11.8976C131.252 14.0241 132.813 15.5854 134.885 15.5854C136.285 15.5854 137.443 14.8586 138.008 13.7819L140.188 15.0201C139.192 16.8236 137.2 18.0349 134.885 18.0349ZM144.361 9.23274C144.361 11.3593 150.686 10.0672 150.686 14.4279C150.686 16.7698 148.64 18.0349 146.11 18.0349C143.768 18.0349 142.073 16.9851 141.319 15.2893L143.499 14.0241C143.876 15.0739 144.818 15.72 146.11 15.72C147.241 15.72 148.102 15.3431 148.102 14.401C148.102 12.3014 141.776 13.4858 141.776 9.28658C141.776 7.07931 143.688 5.7065 146.083 5.7065C148.021 5.7065 149.61 6.59479 150.417 8.15603L148.291 9.34042C147.86 8.42521 147.052 7.99452 146.083 7.99452C145.168 7.96761 144.361 8.37137 144.361 9.23274ZM155.182 9.23274C155.182 11.3593 161.507 10.0672 161.507 14.4279C161.507 16.7698 159.461 18.0349 156.931 18.0349C154.589 18.0349 152.894 16.9851 152.14 15.2893L154.32 14.0241C154.697 15.0739 155.639 15.72 156.931 15.72C158.062 15.72 158.923 15.3431 158.923 14.401C158.923 12.3014 152.597 13.4858 152.597 9.28658C152.597 7.07931 154.509 5.7065 156.904 5.7065C158.842 5.7065 160.431 6.59479 161.238 8.15603L159.112 9.34042C158.681 8.42521 157.873 7.99452 156.904 7.99452C155.989 7.96761 155.182 8.37137 155.182 9.23274Z" fill="#D8DEF2"/>
<path fill-rule="evenodd" clip-rule="evenodd" d="M16.6891 0C12.2476 0 9.44818 2.23418 8.34455 6.67564C10.0135 4.44145 11.9515 3.607 14.1857 4.17228C15.4509 4.49529 16.3661 5.4105 17.362 6.43338C19.004 8.10229 20.8883 10.0135 25.0336 10.0135C29.4751 10.0135 32.2746 7.77927 33.3782 3.33782C31.7093 5.572 29.7712 6.40646 27.537 5.84119C26.2719 5.51817 25.3567 4.60296 24.3607 3.58008C22.7187 1.91117 20.8345 0 16.6891 0ZM8.34455 9.98654C3.9031 9.98654 1.10363 12.2207 0 16.6622C1.66891 14.428 3.607 13.5935 5.84118 14.1588C7.10633 14.4818 8.02153 15.397 9.0175 16.4199C10.6595 18.0888 12.5437 20 16.6891 20C21.1306 20 23.93 17.7658 25.0336 13.3244C23.3647 15.5585 21.4266 16.393 19.1925 15.8277C17.9273 15.5047 17.0121 14.5895 16.0161 13.5666C14.3742 11.9246 12.4899 9.98654 8.34455 9.98654Z" fill="#D8DEF2"/>
</svg>
