<svg width="150" height="150" viewBox="0 0 150 150" fill="none" xmlns="http://www.w3.org/2000/svg">
<rect width="150" height="150" rx="30" fill="#4C00AC"/>
<path d="M50.005 125C63.8023 125 75 117.533 75 108.333V91.6666H50.005C36.2078 91.6666 25.01 99.1333 25.01 108.333C25.01 117.533 36.2078 125 50.005 125Z" fill="#0ACF83"/>
<path d="M25.01 75C25.01 65.8 36.2078 58.3334 50.005 58.3334H75V91.6667H50.005C36.2078 91.6667 25.01 84.2 25.01 75Z" fill="#A259FF"/>
<path d="M25.01 41.6667C25.01 32.4667 36.2078 25 50.005 25H75V58.3333H50.005C36.2078 58.3333 25.01 50.8667 25.01 41.6667Z" fill="#F24E1E"/>
<path d="M75 25H99.995C113.792 25 124.99 32.4667 124.99 41.6667C124.99 50.8667 113.792 58.3333 99.995 58.3333H75V25Z" fill="#FF7262"/>
<path d="M124.99 75C124.99 84.2 113.792 91.6667 99.995 91.6667C86.1978 91.6667 75 84.2 75 75C75 65.8 86.1978 58.3334 99.995 58.3334C113.792 58.3334 124.99 65.8 124.99 75Z" fill="#1ABCFE"/>
</svg>
