<svg width="150" height="150" viewBox="0 0 150 150" fill="none" xmlns="http://www.w3.org/2000/svg">
<rect width="150" height="150" rx="30" fill="#E30613"/>
<path d="M88.9673 25.1502C88.9673 25.3582 89.3369 26.3151 89.7476 27.3552L90.5279 29.1858L93.2796 29.477C94.7992 29.6434 96.1545 29.6851 96.2777 29.5602C96.6062 29.1858 95.4563 25.483 94.9634 25.3582C93.8546 25.0254 88.9673 24.859 88.9673 25.1502Z" fill="#F5F5F5"/>
<path d="M69.7878 29.6433C68.3504 30.4754 67.2415 31.3075 67.3236 31.4323C67.3647 31.5987 68.3504 32.7636 69.5414 34.0534L71.677 36.4248L73.9769 34.8855C75.209 34.0534 76.2357 33.2629 76.2357 33.1381C76.2357 32.8469 72.7859 28.104 72.5395 28.104C72.4162 28.104 71.1842 28.8113 69.7878 29.6433Z" fill="#F5F5F5"/>
<path d="M113.198 32.1812C113.198 33.2213 113.568 33.6374 115.827 35.0519C118.496 36.7577 118.948 36.7993 118.948 35.5512C118.948 35.0103 114.102 30.9747 113.404 30.9747C113.28 30.9747 113.198 31.5156 113.198 32.1812Z" fill="#F5F5F5"/>
<path d="M88.1459 32.3893C65.5165 37.2986 48.103 60.1808 40.5052 94.9618C38.9856 102.035 36.3982 120.548 36.3982 124.584C36.3982 124.875 44.8175 125 60.3828 125H84.4086L83.2175 121.672C76.2357 102.326 74.7572 82.9383 79.1927 68.8761C83.2997 55.7708 91.5957 46.0354 101.083 43.2063C106.627 41.5422 114.225 42.5407 120.673 45.7442C122.234 46.5347 123.712 47.2003 123.876 47.2003C124.041 47.2003 124.41 46.6179 124.698 45.9522C125.191 44.7873 125.109 44.5793 124.246 43.6224C122.316 41.5006 116.771 37.5898 113.445 35.9672C108.229 33.4294 103.013 32.1813 96.3598 32.0148C92.5814 31.89 89.953 32.0148 88.1459 32.3893Z" fill="#F5F5F5"/>
<path d="M49.5814 46.9091L47.4868 49.8214L49.9099 51.4023C53.4008 53.6489 54.099 53.9818 54.4686 53.5657C55.3722 52.5672 57.6721 48.698 57.5489 48.4484C57.4667 48.282 56.0704 47.2003 54.5097 46.0354L51.6759 43.9552L49.5814 46.9091Z" fill="#F5F5F5"/>
<path d="M112.788 46.3266C112.788 47.0755 112.993 47.6164 113.322 47.6164C113.568 47.6164 114.513 47.7412 115.375 47.866C116.812 48.1156 116.895 48.074 116.895 47.0755C116.895 46.2018 116.648 45.9522 115.58 45.7442C114.841 45.5778 113.896 45.3697 113.527 45.2865C112.952 45.1201 112.788 45.3281 112.788 46.3266Z" fill="#F5F5F5"/>
<path d="M99.3166 46.701C97.4685 47.4083 97.4685 47.4499 98.6595 50.4038L99.2345 51.7767L100.877 50.9447C102.356 50.1958 102.52 49.9878 102.274 48.9477C101.945 47.5747 101.329 45.9522 101.206 45.9938C101.124 45.9938 100.302 46.3266 99.3166 46.701Z" fill="#F5F5F5"/>
<path d="M87.8995 55.7292C86.6263 57.4349 86.7495 57.8094 89.0905 60.68L90.4458 62.261L91.5136 60.6384L92.5814 58.9743L91.1029 56.6444C90.2404 55.3547 89.4601 54.273 89.2958 54.273C89.1316 54.273 88.5155 54.9387 87.8995 55.7292Z" fill="#F5F5F5"/>
<path d="M81.2049 70.5818C80.9174 71.5803 80.6299 72.662 80.5067 73.0364C80.3835 73.4525 81.2049 74.451 82.7656 75.8655L85.2297 78.0289L85.8869 75.8239L86.5029 73.6189L84.1209 71.2058L81.7388 68.7928L81.2049 70.5818Z" fill="#F5F5F5"/>
<path d="M34.8786 72.9117L33.6055 76.5728L37.1785 77.9041C39.1088 78.653 40.9159 79.2355 41.1623 79.2355C41.3676 79.2355 42.0247 77.8625 42.5176 76.1984C43.0515 74.5758 43.5854 72.9949 43.6675 72.7452C43.7907 72.3292 37.5071 69.2505 36.5214 69.2505C36.3161 69.2505 35.6179 70.9147 34.8786 72.9117Z" fill="#F5F5F5"/>
<path d="M78.6999 89.2205V91.7583L82.1497 93.4225C84.0389 94.2962 85.7228 95.045 85.846 95.045C86.0103 95.045 86.0103 94.629 85.9281 94.0882C85.8049 93.5889 85.5996 92.4656 85.4764 91.6335C85.271 90.2606 84.9425 89.9277 82.6836 88.638C78.5356 86.2666 78.6999 86.2666 78.6999 89.2205Z" fill="#F5F5F5"/>
<path d="M25.9664 104.448C25.3093 106.861 24.8986 108.899 25.0218 109.024C25.1039 109.107 27.1574 109.44 29.5805 109.731L33.9339 110.272L34.3446 108.816C35.0839 105.904 36.0285 101.618 35.9052 101.494C35.741 101.41 28.0199 100.037 27.486 100.037C27.2806 100.037 26.5824 102.034 25.9664 104.448Z" fill="#F5F5F5"/>
<path d="M82.7658 112.269L83.8336 115.389L86.9138 115.639C88.5976 115.764 90.4868 115.972 91.1029 116.055C92.335 116.263 92.376 116.388 90.6922 112.477L89.8708 110.563L86.1745 109.856C84.1621 109.482 82.314 109.19 82.1086 109.19C81.9033 109.19 82.1908 110.563 82.7658 112.269Z" fill="#F5F5F5"/>
</svg>
