<svg width="150" height="150" viewBox="0 0 150 150" fill="none" xmlns="http://www.w3.org/2000/svg">
<rect y="0.00012207" width="150" height="150" rx="30" fill="#61DAFB"/>
<path d="M125 75.0116C125 67.5728 116.704 60.5231 103.985 56.1514C106.92 41.5943 105.616 30.0127 99.8675 26.3048C98.5426 25.435 96.9935 25.023 95.3017 25.023V30.1272C96.2393 30.1272 96.9935 30.3331 97.6254 30.7223C100.397 32.5076 101.6 39.3055 100.662 48.0489C100.438 50.2004 100.071 52.4664 99.6229 54.7781C95.6278 53.6795 91.2658 52.8326 86.6796 52.2833C83.9278 48.0489 81.0742 44.2036 78.2002 40.839C84.8451 33.9038 91.0824 30.1043 95.3221 30.1043V25.0001C89.7167 25.0001 82.3787 29.4863 74.9592 37.2684C67.5397 29.5321 60.2018 25.0917 54.5964 25.0917V30.1958C58.8157 30.1958 65.0734 33.9724 71.7183 40.8619C68.8647 44.2265 66.011 48.0489 63.3 52.2833C58.6934 52.8326 54.3314 53.6795 50.3363 54.801C49.8675 52.5121 49.521 50.292 49.2764 48.1633C48.3184 39.4199 49.5006 32.622 52.2523 30.8138C52.8638 30.4018 53.6588 30.2187 54.5964 30.2187V25.1146C52.8842 25.1146 51.3351 25.5266 49.9898 26.3963C44.2621 30.1043 42.978 41.663 45.9335 56.1743C33.2552 60.5689 25 67.5957 25 75.0116C25 82.4503 33.296 89.5 46.0151 93.8717C43.0799 108.429 44.3844 120.01 50.1325 123.718C51.4574 124.588 53.0065 125 54.7187 125C60.3241 125 67.662 120.514 75.0815 112.732C82.501 120.468 89.839 124.909 95.4444 124.909C97.1565 124.909 98.7057 124.497 100.051 123.627C105.779 119.919 107.063 108.36 104.107 93.8488C116.745 89.4771 125 82.4274 125 75.0116ZM98.4611 59.7449C97.7069 62.6975 96.7693 65.7417 95.7093 68.7859C94.8736 66.9548 93.9971 65.1237 93.0391 63.2926C92.1015 61.4616 91.1027 59.6762 90.104 57.9367C92.9984 58.4174 95.7909 59.0125 98.4611 59.7449ZM89.1256 84.1212C87.5357 87.2112 85.905 90.1409 84.2132 92.8646C81.1761 93.1622 78.0982 93.3224 75 93.3224C71.9221 93.3224 68.8443 93.1622 65.8276 92.8875C64.1358 90.1638 62.4847 87.2569 60.8948 84.1899C59.3457 81.1915 57.9393 78.1473 56.6551 75.0802C57.9189 72.0132 59.3457 68.9461 60.8744 65.9477C62.4643 62.8578 64.095 59.928 65.7868 57.2043C68.8239 56.9067 71.9018 56.7465 75 56.7465C78.0779 56.7465 81.1557 56.9067 84.1724 57.1814C85.8642 59.9051 87.5153 62.812 89.1052 65.879C90.6543 68.8774 92.0607 71.9216 93.3449 74.9887C92.0607 78.0557 90.6543 81.1228 89.1256 84.1212ZM95.7093 81.1457C96.81 84.2128 97.7477 87.2798 98.5222 90.2553C95.852 90.9878 93.0391 91.6058 90.1243 92.0864C91.1231 90.324 92.1219 88.5158 93.0595 86.6618C93.9972 84.8307 94.8736 82.9768 95.7093 81.1457ZM75.0408 105.568C73.1451 103.37 71.2495 100.921 69.3742 98.2434C71.2087 98.335 73.084 98.4036 74.9796 98.4036C76.8956 98.4036 78.7913 98.3579 80.6461 98.2434C78.8117 100.921 76.916 103.37 75.0408 105.568ZM59.8757 92.0864C56.9812 91.6058 54.1887 91.0107 51.5185 90.2782C52.2727 87.3256 53.2104 84.2814 54.2703 81.2372C55.106 83.0683 55.9825 84.8994 56.9405 86.7305C57.8985 88.5616 58.8769 90.3469 59.8757 92.0864ZM74.9389 44.4554C76.8345 46.6527 78.7301 49.1017 80.6054 51.7797C78.7709 51.6882 76.8956 51.6195 75 51.6195C73.084 51.6195 71.1883 51.6653 69.3335 51.7797C71.168 49.1017 73.0636 46.6527 74.9389 44.4554ZM59.8553 57.9367C58.8565 59.6991 57.8577 61.5073 56.9201 63.3613C55.9825 65.1924 55.106 67.0235 54.2703 68.8546C53.1696 65.7875 52.232 62.7204 51.4574 59.7449C54.1276 59.0354 56.9405 58.4174 59.8553 57.9367ZM41.4085 86.5932C34.1928 83.137 29.5251 78.6051 29.5251 75.0116C29.5251 71.4181 34.1928 66.8632 41.4085 63.43C43.1614 62.5831 45.0775 61.8278 47.0546 61.1182C48.2165 65.6044 49.7452 70.2736 51.6408 75.0573C49.7656 79.8182 48.2572 84.4645 47.1158 88.9278C45.0978 88.2182 43.1818 87.44 41.4085 86.5932ZM52.3746 119.301C49.6025 117.516 48.3999 110.718 49.3375 101.974C49.5618 99.8227 49.9287 97.5568 50.3771 95.245C54.3722 96.3437 58.7342 97.1906 63.3204 97.7399C66.0722 101.974 68.9258 105.82 71.7998 109.184C65.1549 116.119 58.9177 119.919 54.6779 119.919C53.7607 119.896 52.9861 119.69 52.3746 119.301ZM100.724 101.86C101.682 110.603 100.499 117.401 97.7477 119.209C97.1362 119.621 96.3412 119.804 95.4036 119.804C91.1843 119.804 84.9266 116.028 78.2817 109.138C81.1353 105.774 83.989 101.951 86.7 97.717C91.3066 97.1677 95.6686 96.3208 99.6637 95.1993C100.132 97.511 100.499 99.7312 100.724 101.86ZM108.571 86.5932C106.818 87.44 104.902 88.1954 102.925 88.9049C101.763 84.4188 100.234 79.7495 98.3388 74.9658C100.214 70.205 101.722 65.5586 102.864 61.0953C104.882 61.8049 106.798 62.5831 108.592 63.43C115.807 66.8861 120.475 71.4181 120.475 75.0116C120.455 78.6051 115.787 83.1599 108.571 86.5932Z" fill="#F5F5F5"/>
<path d="M74.9796 85.4716C80.1242 85.4716 84.2947 80.7885 84.2947 75.0116C84.2947 69.2346 80.1242 64.5515 74.9796 64.5515C69.835 64.5515 65.6645 69.2346 65.6645 75.0116C65.6645 80.7885 69.835 85.4716 74.9796 85.4716Z" fill="#F5F5F5"/>
</svg>
