<svg width="101" height="58" viewBox="0 0 101 58" fill="none" xmlns="http://www.w3.org/2000/svg">
<path d="M47.3122 26.329C42.1867 40.6412 37.6245 53.3912 37.1663 54.6626L36.3326 57.0167H39.5204H42.6867L52.7704 28.9535C58.3122 13.5157 62.8745 0.765705 62.9367 0.619787C63.0204 0.411624 62.3745 0.349379 59.8326 0.349379H56.6245L47.3122 26.329Z" fill="#141C3A"/>
<path d="M16.4378 14.7871C8.54184 19.2871 1.70816 23.1626 1.29184 23.4126L0.5 23.8708V28.6412V33.4331L15.7082 42.1004C24.0837 46.8708 30.9786 50.7667 31.0204 50.7667C31.0827 50.7667 31.1245 48.2463 31.1245 45.1831V39.6004L20.4796 34.0575L9.81224 28.5167L20.4796 23.1831L31.1255 17.8494V12.2239C31.1255 9.11979 31.0633 6.59836 30.9796 6.61979C30.8745 6.62081 24.3541 10.3075 16.4378 14.7871Z" fill="#141C3A"/>
<path d="M69.9163 12.1626L69.9786 17.7463L78.8327 22.2882C83.7082 24.7882 88.4786 27.2259 89.4164 27.7259L91.1664 28.6014L80.5204 34.0994L69.8745 39.5994V45.1831C69.8745 48.2453 69.9163 50.7667 69.9786 50.7667C70.0408 50.7667 76.9368 46.8504 85.2908 42.079L100.5 33.3912L100.458 28.5994L100.396 23.8075L97.7919 22.3279C89.0837 17.3484 70.0623 6.59836 69.9796 6.59836C69.9163 6.59938 69.8959 9.09938 69.9163 12.1626Z" fill="#141C3A"/>
</svg>
