<?xml version="1.0" standalone="no"?>
<!DOCTYPE svg PUBLIC "-//W3C//DTD SVG 20010904//EN"
 "http://www.w3.org/TR/2001/REC-SVG-20010904/DTD/svg10.dtd">
<svg version="1.0" xmlns="http://www.w3.org/2000/svg"
 width="100px" height="100px" viewBox="0 0 776.000000 980.000000"
 preserveAspectRatio="xMidYMid meet">

<g transform="translate(0.000000,980.000000) scale(0.100000,-0.100000)"
fill="#000000" stroke="none">
<path d="M4566 9777 c-79 -45 -76 -24 -76 -627 0 -608 -3 -585 80 -627 61 -31
85 -29 176 17 135 67 257 71 379 11 77 -38 137 -101 178 -189 29 -61 32 -76
32 -162 0 -86 -3 -101 -32 -162 -39 -83 -108 -154 -188 -194 -55 -26 -69 -29
-165 -29 -103 0 -107 1 -196 43 -50 23 -102 42 -115 42 -42 0 -111 -42 -131
-80 -17 -32 -18 -74 -18 -665 0 -611 1 -631 20 -663 11 -18 34 -41 52 -52 32
-19 52 -20 524 -20 l490 0 0 -142 c0 -129 3 -151 27 -223 38 -114 91 -199 177
-285 85 -85 156 -130 259 -166 335 -116 699 33 855 350 60 122 81 226 72 363
l-6 103 343 0 c390 0 392 0 434 80 21 39 23 57 23 184 0 604 -184 1210 -521
1716 -137 205 -209 292 -398 481 -191 190 -279 263 -481 397 -430 287 -908
456 -1435 507 -221 22 -311 20 -359 -8z m469 -313 c473 -64 926 -255 1327
-561 132 -100 402 -369 499 -498 357 -470 562 -1012 586 -1547 l6 -138 -384 0
c-439 0 -435 1 -476 -80 -32 -61 -29 -83 20 -180 42 -85 42 -86 42 -195 0 -98
-3 -116 -27 -167 -36 -77 -112 -152 -195 -190 -211 -99 -456 7 -535 230 -16
45 -19 75 -16 142 4 74 9 97 46 176 23 50 42 103 42 118 0 43 -25 91 -61 117
l-34 24 -540 5 -540 5 -3 393 -2 393 103 -7 c137 -9 240 11 367 73 79 38 108
59 180 132 141 142 203 292 203 491 0 128 -18 204 -75 320 -58 116 -178 238
-294 298 -122 63 -232 86 -371 78 l-113 -6 0 293 c0 162 3 297 7 301 8 7 77 2
238 -20z"/>
<path d="M2940 8273 c-616 -36 -1208 -257 -1720 -641 -165 -124 -458 -420
-588 -593 -335 -449 -533 -935 -609 -1499 -25 -184 -25 -591 0 -770 89 -638
332 -1182 740 -1655 215 -250 310 -422 392 -714 59 -210 166 -345 343 -433
l82 -41 0 -287 c0 -222 3 -299 15 -344 58 -221 239 -375 473 -402 l59 -6 6
-177 c6 -196 16 -244 73 -361 49 -100 169 -220 271 -273 141 -73 173 -77 637
-77 467 0 498 4 636 71 115 57 230 170 284 279 58 118 67 165 73 362 l5 178
30 0 c55 0 173 32 233 63 78 41 194 155 228 227 52 108 57 150 57 460 l0 287
87 43 c68 33 104 60 163 119 89 90 137 174 175 311 41 145 64 207 117 315 69
138 137 238 267 390 470 550 715 1149 766 1872 6 82 5 97 -14 135 -43 87 -12
83 -565 86 l-488 3 -42 -25 c-52 -30 -82 -88 -73 -140 3 -20 23 -70 44 -113
37 -75 38 -80 38 -183 0 -88 -4 -113 -23 -154 -117 -255 -443 -316 -640 -119
-29 29 -65 78 -80 110 -23 51 -27 70 -27 163 0 103 1 107 43 196 23 50 42 101
42 114 0 45 -40 110 -81 130 -37 19 -61 20 -569 20 l-530 0 0 394 0 395 108
-6 c142 -7 236 12 361 73 77 38 109 61 175 128 90 90 136 160 172 265 62 177
51 363 -31 536 -64 135 -193 261 -330 326 -107 50 -177 64 -322 63 l-132 -1
-3 406 c-3 458 0 439 -84 481 -41 20 -84 22 -244 13z m30 -753 c6 -499 3 -481
81 -521 56 -28 90 -24 182 24 82 42 82 42 192 42 101 0 115 -2 170 -29 80 -40
149 -111 188 -194 29 -61 32 -76 32 -163 0 -90 -2 -99 -38 -171 -42 -86 -98
-142 -182 -184 -111 -54 -236 -49 -367 16 -95 46 -117 48 -178 18 -83 -43 -80
-20 -80 -625 l0 -533 -395 0 -395 0 6 103 c24 382 -238 699 -614 746 -213 27
-423 -47 -577 -204 -82 -83 -135 -170 -172 -280 -24 -71 -27 -95 -27 -222 l0
-143 -245 0 -244 0 6 128 c25 483 191 976 470 1393 199 298 490 588 783 781
397 262 842 418 1319 461 89 8 79 59 85 -443z m-1315 -1808 c80 -38 152 -108
191 -187 27 -55 29 -69 29 -170 0 -110 0 -110 -42 -193 -48 -92 -51 -118 -24
-179 38 -82 7 -77 616 -83 l540 -5 3 -386 2 -385 -119 4 c-146 5 -238 -13
-349 -68 -179 -90 -318 -264 -369 -460 -21 -85 -21 -244 1 -330 21 -86 84
-211 141 -282 84 -105 233 -198 375 -234 68 -18 230 -23 288 -10 l32 8 0 -276
0 -277 -632 3 c-631 3 -633 3 -681 25 -123 57 -165 114 -223 309 -93 305 -202
502 -416 749 -392 453 -633 994 -694 1553 l-7 62 384 0 c367 0 385 1 417 20
36 22 71 87 72 132 0 15 -19 65 -42 110 -43 83 -43 83 -43 193 0 102 2 114 30
170 39 78 114 151 190 186 78 35 95 38 187 34 61 -2 92 -10 143 -33z m2399
-915 c-9 -137 11 -240 73 -366 37 -79 59 -108 127 -175 44 -45 110 -98 146
-119 163 -94 372 -119 549 -65 117 36 199 85 292 178 72 71 93 101 132 180 62
126 82 228 73 367 l-7 103 242 0 242 0 -7 -62 c-60 -559 -306 -1108 -699
-1559 -223 -257 -326 -451 -436 -824 -25 -84 -72 -150 -137 -194 -94 -62 -87
-61 -761 -61 l-613 0 0 413 c0 393 -1 413 -20 445 -48 79 -134 93 -233 38
-212 -116 -456 -41 -559 172 -30 61 -32 75 -32 162 0 75 4 107 23 152 32 83
106 160 194 203 126 62 232 58 370 -12 90 -47 154 -46 205 1 53 47 52 37 52
594 0 285 3 522 7 525 3 4 181 7 395 7 l389 0 -7 -103z m304 -3169 c-3 -249
-4 -265 -25 -304 -25 -47 -73 -91 -120 -111 -48 -19 -2138 -19 -2186 0 -47 20
-95 64 -120 111 -21 39 -22 55 -25 304 l-3 262 1241 0 1241 0 -3 -262z m-560
-905 c-3 -160 -5 -171 -31 -224 -30 -63 -92 -125 -159 -161 l-43 -23 -445 0
c-445 0 -445 0 -488 23 -66 35 -121 90 -155 156 -31 60 -32 63 -35 229 l-4
167 682 0 682 0 -4 -167z"/>
</g>
</svg>
