<svg width="11" height="10" viewBox="0 0 11 10" fill="none" xmlns="http://www.w3.org/2000/svg">
<path fill-rule="evenodd" clip-rule="evenodd" d="M2.0623 0.0170245C0.405153 0.197492 -0.0725707 1.6629 1.32255 2.28609L1.44105 2.33901V5.00165V7.6643L1.32255 7.71724C0.420253 8.12028 0.227004 8.96988 0.908902 9.53589C1.69665 10.1898 3.23512 10.1463 3.92925 9.45064C4.49675 8.88184 4.26165 8.08083 3.42142 7.72036L3.30407 7.67002L3.31165 7.49655C3.32982 7.07997 3.4953 6.90326 4.0328 6.72633C4.38595 6.61008 4.57459 6.56291 5.57714 6.3403C6.27652 6.18499 6.68999 6.07713 7.09089 5.94543C8.63416 5.43848 9.47386 4.54435 9.54031 3.33724L9.54964 3.16774L9.66621 3.11628C11.1855 2.44572 10.4509 0.838862 8.62489 0.838428C6.79127 0.838011 6.03709 2.42768 7.54779 3.10881L7.68359 3.17002L7.67337 3.32508C7.63946 3.83892 7.47014 4.14008 7.02759 4.47355C6.67459 4.73955 6.09202 4.92736 4.73617 5.21232C4.28077 5.30802 3.84307 5.41297 3.54505 5.49794C3.41975 5.53366 3.31482 5.56288 3.31187 5.56288C3.30892 5.56288 3.3066 4.83622 3.3067 3.94808L3.3069 2.33329L3.42282 2.28295C3.92955 2.06293 4.23922 1.66979 4.23922 1.24656C4.23922 0.472388 3.2114 -0.108136 2.0623 0.0170245ZM2.63372 0.650437C3.32077 0.787543 3.5349 1.36198 3.02392 1.69719C2.4309 2.08623 1.44105 1.80762 1.44105 1.25167C1.44105 0.831822 2.03708 0.531365 2.63372 0.650437ZM8.89206 1.48542C9.60299 1.63617 9.78099 2.26969 9.19814 2.57476C8.50524 2.93745 7.51919 2.5238 7.70226 1.94722C7.81219 1.60101 8.38631 1.37816 8.89206 1.48542ZM2.63372 8.15043C3.32042 8.28747 3.53465 8.86214 3.02392 9.19718C2.4309 9.58623 1.44105 9.30761 1.44105 8.75166C1.44105 8.33182 2.03708 8.03138 2.63372 8.15043Z" fill="#F7F7F7"/>
</svg>
