<svg width="80" height="80" viewBox="0 0 80 80" fill="none" xmlns="http://www.w3.org/2000/svg">
<path d="M40 0C17.9133 0 0 17.91 0 40C0 57.6733 11.46 72.6667 27.3567 77.9567C29.3533 78.3267 30 77.0867 30 76.0333V68.5867C18.8733 71.0067 16.5567 63.8667 16.5567 63.8667C14.7367 59.2433 12.1133 58.0133 12.1133 58.0133C8.48333 55.53 12.39 55.5833 12.39 55.5833C16.4067 55.8633 18.52 59.7067 18.52 59.7067C22.0867 65.82 27.8767 64.0533 30.16 63.03C30.5167 60.4467 31.5533 58.68 32.7 57.6833C23.8167 56.6667 14.4767 53.2367 14.4767 37.9133C14.4767 33.5433 16.04 29.9767 18.5967 27.1767C18.1833 26.1667 16.8133 22.0967 18.9867 16.59C18.9867 16.59 22.3467 15.5167 29.99 20.69C33.18 19.8033 36.6 19.36 40 19.3433C43.4 19.36 46.8233 19.8033 50.02 20.69C57.6567 15.5167 61.01 16.59 61.01 16.59C63.1867 22.1 61.8167 26.17 61.4033 27.1767C63.97 29.9767 65.52 33.5467 65.52 37.9133C65.52 53.2767 56.1633 56.66 47.2567 57.65C48.69 58.89 50 61.3233 50 65.0567V76.0333C50 77.0967 50.64 78.3467 52.67 77.9533C68.5533 72.6567 80 57.6667 80 40C80 17.91 62.09 0 40 0Z" fill="#141C3A"/>
</svg>
