<svg width="38" height="50" viewBox="0 0 38 50" fill="none" xmlns="http://www.w3.org/2000/svg">
<path d="M15.625 12.5H12.5V15.625H15.625V12.5ZM15.625 6.25H12.5V9.375H15.625V6.25ZM34.375 0C32.8125 0 4.6875 0 3.125 0C1.5625 0 0 1.5625 0 3.125C0 4.6875 0 39.0625 0 40.625C0 42.1875 1.5625 43.75 3.125 43.75C4.6875 43.75 9.375 43.75 9.375 43.75V50L14.0625 45.3125L18.75 50V43.75C18.75 43.75 32.8125 43.75 34.375 43.75C35.9375 43.75 37.5 42.1875 37.5 40.625C37.5 39.0625 37.5 4.6875 37.5 3.125C37.5 1.5625 35.9375 0 34.375 0ZM34.375 39.0625C34.375 39.8438 33.6426 40.625 32.8125 40.625C31.9824 40.625 18.75 40.625 18.75 40.625V37.5H9.375V40.625C9.375 40.625 5.51758 40.625 4.6875 40.625C3.85742 40.625 3.125 39.7949 3.125 39.0625C3.125 38.3301 3.125 34.375 3.125 34.375H34.375C34.375 34.375 34.375 38.2812 34.375 39.0625ZM34.375 31.25H9.375V3.125H34.4238L34.375 31.25ZM15.625 25H12.5V28.125H15.625V25ZM15.625 18.75H12.5V21.875H15.625V18.75Z" fill="#F7F7F7"/>
</svg>
