<svg width="200px" height="200px"  viewBox="0 0 125 222"  xmlns="http://www.w3.org/2000/svg">
  <g transform="translate(0.000000,222.000000) scale(0.1,-0.1)" fill="#4fe496" stroke="none">
    <path d="M132 1750 c-62 -38 -62 -41 -62 -552 0 -620 -29 -571 335 -578 213
-4 245 -7 262 -23 11 -9 23 -17 27 -17 5 0 64 -41 133 -91 68 -50 126 -89 129
-86 3 2 10 51 17 108 12 104 12 104 89 110 86 7 118 23 148 72 19 31 20 54 20
505 0 522 1 513 -63 552 -51 31 -984 31 -1035 0z m404 -295 c31 -48 -30 -100
-70 -59 -31 30 -9 84 34 84 11 0 27 -11 36 -25z m295 15 c29 -16 26 -67 -5
-81 -34 -16 -66 3 -66 41 0 41 33 60 71 40z m-492 -358 c115 -225 467 -234
607 -17 50 79 94 74 53 -6 -110 -216 -434 -269 -619 -103 -49 44 -100 119
-100 146 0 34 38 21 59 -20z" />
  </g>
</svg>