<svg width="100" height="101" viewBox="0 0 100 101" fill="none" xmlns="http://www.w3.org/2000/svg">
<path d="M45.7081 0.215081C36.3274 1.18341 27.6528 5.31897 20.7131 12.0771C13.3901 19.2387 9.13353 28.3369 8.18538 38.9684L8.04416 40.3402H5.54265H3.04114L8.70989 47.1386C11.8368 50.8909 14.4593 53.9573 14.54 53.9573C14.6207 53.9573 17.2433 50.8909 20.3702 47.1386L26.0389 40.3402H23.5172H20.9754L21.0964 39.271C21.9437 32.1094 24.6671 26.3599 29.5693 21.4779C33.725 17.302 38.3851 14.7803 44.3564 13.4691C47.1807 12.8437 52.91 12.8437 55.7343 13.4691C60.1725 14.4374 64.0054 16.1723 67.4148 18.7343C73.2651 23.1523 77.098 29.2851 78.6312 36.7089C79.1154 39.0894 79.1154 44.8187 78.6312 47.1991C76.1902 59.0813 67.7174 67.7156 55.8352 70.439C54.1002 70.8425 53.2731 70.8626 43.146 70.9433L32.2927 71.0442V80.7073V90.3704L53.495 90.4108L74.6974 90.4713L75.0807 91.5606C75.9683 94.0823 78.2277 96.8259 80.5477 98.1977C85.6314 101.204 92.0062 100.437 96.1216 96.3216C97.7759 94.6875 98.8854 92.8921 99.5309 90.8747C100.156 88.8776 100.156 85.4077 99.5309 83.4106C97.8162 78.0242 92.7123 74.2316 87.1646 74.2316C83.2308 74.2316 79.1759 76.2893 76.9165 79.396L75.9683 80.6871H71.1267H66.285L68.1006 79.7995C75.2219 76.3902 81.7581 70.4995 85.813 63.8221C94.77 49.0954 93.9025 30.5157 83.5737 16.7573C82.1414 14.8409 78.6716 11.25 76.6542 9.55541C68.262 2.57538 56.7026 -0.934808 45.7081 0.215081ZM56.1983 3.72527C66.8499 5.58123 75.5043 11.0281 81.7581 19.7834C83.372 22.0226 85.8937 26.9853 86.741 29.5675C89.4039 37.7579 89.4442 45.787 86.8216 53.9573C82.2221 68.3611 69.069 78.9522 53.8985 80.4854C52.7486 80.5863 48.1491 80.6871 43.6706 80.6871H35.5205V77.4795V74.272L44.8608 74.1711C53.3337 74.0904 54.3625 74.0501 56.0974 73.6668C62.9564 72.1537 68.1813 69.3698 72.8212 64.7299C77.5217 60.0295 80.5275 54.3002 81.859 47.5017C82.4037 44.6976 82.3431 38.928 81.7581 35.9625C80.467 29.4666 77.4208 23.7575 72.8414 19.158C68.2015 14.5181 62.5933 11.5526 55.9966 10.2413C52.8091 9.59575 47.2816 9.59575 44.0538 10.2413C30.9613 12.8639 20.8745 22.9103 18.373 35.8415C18.1309 37.0519 17.8888 39.271 17.8283 40.784L17.7073 43.5679H18.4537H19.2001L16.9608 46.2308C15.7303 47.7035 14.6409 48.9139 14.54 48.9139C14.4392 48.9139 13.3498 47.7035 12.1192 46.2308L9.87995 43.5679H10.6062H11.3123V41.7926C11.3324 31.7059 15.4882 21.8007 22.6901 14.5988C28.9036 8.42569 36.5897 4.67342 45.4055 3.50336C48.0482 3.16041 53.6766 3.28145 56.1983 3.72527ZM89.4846 77.762C94.649 79.1136 97.8565 84.3991 96.5453 89.4223C95.1936 94.627 89.9082 97.8346 84.885 96.5233C79.7004 95.1717 76.4726 89.8862 77.7839 84.863C79.1355 79.6583 84.421 76.4507 89.4846 77.762ZM74.5763 84.3587C74.5158 84.621 74.3948 85.3472 74.3141 85.9726L74.193 87.1426H54.8668H35.5205V85.5288V83.9149H55.1089H74.6974L74.5763 84.3587Z" fill="#141C3A"/>
<path d="M88.9399 86.2751L85.5508 89.6643L84.5824 88.696C84.0579 88.1715 83.5334 87.7478 83.4124 87.7478C83.1501 87.7478 81.3143 89.6239 81.3143 89.8862C81.3143 89.9871 82.2625 91.0159 83.4325 92.186L85.5508 94.3042L90.0898 89.7652C92.5913 87.2637 94.6288 85.1253 94.6288 85.0244C94.6288 84.7621 92.7729 82.9062 92.5106 82.9062C92.3896 82.9062 90.7959 84.4192 88.9399 86.2751Z" fill="#141C3A"/>
<path d="M45.5467 21.1148C45.5064 21.2157 45.3046 21.9621 45.1029 22.7892C44.9012 23.6163 44.6793 24.4233 44.6187 24.5443C44.5179 24.7259 43.9732 24.504 42.783 23.7777L41.0884 22.7691L36.7914 27.0862L32.4743 31.3831L33.483 33.0777C34.0478 34.0057 34.4715 34.8126 34.411 34.853C34.3706 34.8933 33.5435 35.1354 32.555 35.3775L30.7797 35.8213V41.9541V48.0868L32.555 48.5306C33.5435 48.7727 34.3706 49.0148 34.411 49.0551C34.4715 49.0955 34.0478 49.9024 33.483 50.8304L32.4743 52.525L36.7914 56.8219L41.0884 61.139L42.783 60.1304C43.7109 59.5655 44.5179 59.1419 44.5582 59.2024C44.5986 59.2427 44.8406 60.0698 45.0827 61.0584L45.5265 62.8336H51.6593H57.792L58.2358 61.0584C58.4779 60.0698 58.72 59.2427 58.7604 59.2024C58.8007 59.1419 59.6076 59.5655 60.5356 60.1304L62.2302 61.139L66.5272 56.8219L70.8443 52.525L69.8356 50.8304C69.2707 49.9024 68.8471 49.0955 68.9076 49.0551C68.948 49.0148 69.7751 48.7727 70.7636 48.5306L72.5389 48.0868V41.9541V35.8213L70.7636 35.3775C69.7751 35.1354 68.948 34.8933 68.9076 34.853C68.8471 34.8126 69.2707 34.0057 69.8356 33.0777L70.8443 31.3831L66.5272 27.0862L62.2302 22.7691L60.5356 23.7777C59.6076 24.3426 58.8007 24.7662 58.7604 24.7057C58.72 24.6654 58.4779 23.8383 58.2358 22.8498L57.792 21.0745L51.7198 21.014C48.371 20.9938 45.5871 21.0341 45.5467 21.1148ZM55.7142 26.1582C56.1782 28.0747 56.1983 28.0949 57.0053 28.458C57.4491 28.6597 57.9534 28.8413 58.1148 28.8413C58.2762 28.8413 59.1638 28.3975 60.0515 27.8528L61.7057 26.8643L64.2274 29.4263L66.7491 31.9682L65.7606 33.5821C65.2159 34.4697 64.7721 35.3371 64.7721 35.4985C64.7721 35.6599 64.9536 36.1643 65.1554 36.6081C65.5185 37.415 65.5387 37.4352 67.4551 37.8992L69.412 38.3632V41.9541V45.5449L67.5762 45.9888C66.5877 46.2308 65.6395 46.5738 65.4781 46.7352C65.3167 46.8966 65.0747 47.3807 64.9536 47.8044C64.7115 48.571 64.7519 48.6517 65.7202 50.2857L66.7491 52.0005L64.187 54.5221L61.6452 57.0438L60.0313 56.0553C59.1437 55.5106 58.2762 55.0668 58.1148 55.0668C57.9534 55.0668 57.4491 55.2484 57.0053 55.4501C56.1983 55.8132 56.1782 55.8334 55.7142 57.7499L55.2502 59.7067H51.6593H48.0684L47.6246 57.8709C47.3825 56.8824 47.0396 55.9343 46.8782 55.7729C46.7168 55.6115 46.2326 55.3694 45.809 55.2484C45.0424 55.0063 44.9617 55.0467 43.3276 56.015L41.6129 57.0438L39.0912 54.4818L36.5695 51.9399L37.558 50.3261C38.1027 49.4384 38.5465 48.571 38.5465 48.4096C38.5465 48.2482 38.365 47.7438 38.1632 47.3C37.8001 46.4931 37.7799 46.4729 35.8634 46.0089L33.9066 45.5449V41.9541V38.3632L35.8634 37.8992C37.7799 37.4352 37.8001 37.415 38.1632 36.6081C38.365 36.1643 38.5465 35.6599 38.5465 35.4985C38.5465 35.3371 38.1027 34.4495 37.558 33.5619L36.5695 31.9077L39.1315 29.386L41.6734 26.8643L43.2873 27.8528C44.1749 28.3975 45.0424 28.8413 45.2038 28.8413C45.3652 28.8413 45.8695 28.6597 46.3133 28.458C47.1203 28.0949 47.1404 28.0747 47.6044 26.1582L48.0684 24.2014H51.6593H55.2502L55.7142 26.1582Z" fill="#141C3A"/>
<path d="M49.3393 30.899C47.5237 31.2419 45.2239 32.5128 43.7109 34.0057C40.2612 37.4755 39.4139 42.4785 41.5523 46.8764C44.9213 53.8362 54.2415 55.3694 59.648 49.8822C64.0256 45.4239 64.0054 38.4439 59.6278 34.0259C56.9649 31.3226 53.1723 30.1727 49.3393 30.899ZM54.9677 34.6512C56.8035 35.4985 57.9736 36.6686 58.8814 38.4842C59.5874 39.9367 59.6278 40.1183 59.6278 41.954C59.6278 43.7898 59.5874 43.9714 58.8814 45.4239C57.9736 47.2597 56.8035 48.3894 54.9274 49.277C53.6968 49.862 53.3942 49.9226 51.6593 49.9226C49.9243 49.9226 49.6217 49.862 48.3912 49.277C46.515 48.3894 45.345 47.2597 44.4371 45.4239C43.7311 43.9714 43.6907 43.7898 43.6907 41.9742C43.6907 40.2191 43.7512 39.9165 44.3363 38.6859C45.1432 36.9712 46.2931 35.7204 47.8061 34.9337C49.3797 34.0864 50.2673 33.8846 52.1031 33.9653C53.3337 34.0259 53.959 34.1872 54.9677 34.6512Z" fill="#141C3A"/>
<path d="M50.0454 37.3746C49.0569 37.6974 47.3623 39.4323 47.0597 40.4612C46.4949 42.3575 46.8983 43.8705 48.3307 45.2826C49.3595 46.3317 50.3884 46.7957 51.6593 46.7957C52.9302 46.7957 53.9591 46.3317 54.9879 45.2826C56.9649 43.3258 57.0254 40.8041 55.1493 38.7263C53.838 37.2738 51.9619 36.7694 50.0454 37.3746ZM52.7688 40.8445C53.0916 41.1471 53.2732 41.5707 53.2732 41.954C53.2732 42.3373 53.0916 42.761 52.7688 43.0636C52.4662 43.3863 52.0426 43.5679 51.6593 43.5679C51.276 43.5679 50.8523 43.3863 50.5497 43.0636C50.227 42.761 50.0454 42.3373 50.0454 41.954C50.0454 41.5707 50.227 41.1471 50.5497 40.8445C50.8523 40.5217 51.276 40.3401 51.6593 40.3401C52.0426 40.3401 52.4662 40.5217 52.7688 40.8445Z" fill="#141C3A"/>
<path d="M3.24289 58.3551C2.25439 58.6779 0.559814 60.4128 0.257212 61.4417C-0.0857373 62.6319 -0.0857373 95.5147 0.257212 96.7049C0.579988 97.8145 2.25439 99.4889 3.36393 99.8116C4.55417 100.155 24.5259 100.155 25.7162 99.8116C26.8257 99.4889 28.5001 97.8145 28.8229 96.7049C29.1658 95.5147 29.1658 62.6319 28.8229 61.482C28.7018 61.0382 28.1975 60.2312 27.7133 59.7067C26.2407 58.0525 26.5029 58.0929 14.4594 58.113C7.4188 58.1332 3.70688 58.2139 3.24289 58.3551ZM25.3329 61.825L25.8372 62.3091V79.0733V95.8375L25.3329 96.3216L24.8487 96.826H14.54H4.23139L3.74723 96.3216L3.24289 95.8375V79.0733V62.3091L3.74723 61.825L4.23139 61.3206H14.54H24.8487L25.3329 61.825Z" fill="#141C3A"/>
<path d="M6.47064 66.1622V67.7761H14.54H22.6094V66.1622V64.5484H14.54H6.47064V66.1622Z" fill="#141C3A"/>
<path d="M6.47064 72.6178V74.2317H14.54H22.6094V72.6178V71.0039H14.54H6.47064V72.6178Z" fill="#141C3A"/>
<path d="M6.47064 79.0734V80.6873H14.54H22.6094V79.0734V77.4595H14.54H6.47064V79.0734Z" fill="#141C3A"/>
<path d="M6.47064 85.5287V87.1426H14.54H22.6094V85.5287V83.9148H14.54H6.47064V85.5287Z" fill="#141C3A"/>
<path d="M6.47064 91.9843V93.5981H8.08452H9.6984V91.9843V90.3704H8.08452H6.47064V91.9843Z" fill="#141C3A"/>
<path d="M12.9261 91.9843V93.5981H14.54H16.1539V91.9843V90.3704H14.54H12.9261V91.9843Z" fill="#141C3A"/>
<path d="M19.3817 91.9843V93.5981H20.9955H22.6094V91.9843V90.3704H20.9955H19.3817V91.9843Z" fill="#141C3A"/>
</svg>
