<svg width="100" height="100" viewBox="0 0 100 100" fill="none" xmlns="http://www.w3.org/2000/svg">
<path d="M14.5898 3.55469C14.3164 3.82812 14.0234 4.57031 13.8086 5.50781C13.3398 7.46094 13.0469 7.55859 11.1719 6.44531C10.4297 6.01562 9.62891 5.66406 9.375 5.66406C8.73047 5.66406 5.66406 8.73047 5.66406 9.375C5.66406 9.62891 6.01562 10.4297 6.44531 11.1719C7.55859 13.0469 7.46094 13.3398 5.50781 13.8086C3.26172 14.3164 3.125 14.5117 3.125 17.1875C3.125 19.8633 3.26172 20.0586 5.50781 20.5664C7.46094 21.0352 7.55859 21.3281 6.44531 23.2031C6.01562 23.9453 5.66406 24.7461 5.66406 25C5.66406 25.6445 8.73047 28.7109 9.375 28.7109C9.62891 28.7109 10.4297 28.3594 11.1719 27.9297C13.0469 26.8164 13.3398 26.9141 13.8086 28.8672C14.3164 31.1133 14.5117 31.25 17.1875 31.25C19.8633 31.25 20.0586 31.1133 20.5664 28.8672C21.0352 26.9141 21.3281 26.8164 23.2031 27.9297C23.9453 28.3594 24.7461 28.7109 25 28.7109C25.6445 28.7109 28.7109 25.6445 28.7109 25C28.7109 24.7461 28.3594 23.9453 27.9297 23.2031C26.8164 21.3281 26.9141 21.0352 28.8672 20.5664C31.1133 20.0586 31.25 19.8633 31.25 17.1875C31.25 14.5117 31.1133 14.3164 28.8672 13.8086C26.9141 13.3398 26.8164 13.0469 27.9297 11.1719C28.3594 10.4297 28.7109 9.62891 28.7109 9.375C28.7109 8.73047 25.6445 5.66406 25 5.66406C24.7461 5.66406 23.9453 6.01562 23.2031 6.44531C21.3281 7.55859 21.0352 7.46094 20.5664 5.50781C20.0586 3.26172 19.8633 3.125 17.1875 3.125C15.1953 3.125 14.9805 3.16406 14.5898 3.55469ZM17.8711 7.61719C18.2422 9.14062 18.3398 9.25781 19.8828 9.92188C21.1523 10.4688 22.3633 10.6836 22.7148 10.4102C22.832 10.3125 23.3594 10 23.8477 9.70703C24.5703 9.29688 24.8047 9.23828 24.9805 9.43359C25.1172 9.62891 25 9.98047 24.4922 10.8398C23.6914 12.168 23.6914 12.6953 24.4531 14.4922C25.1172 16.0352 25.2344 16.1328 26.7578 16.5039C27.8125 16.7578 28.125 16.9141 28.125 17.1875C28.125 17.4609 27.8125 17.6172 26.7578 17.8711C25.2344 18.2422 25.1172 18.3398 24.4531 19.8828C23.5742 21.9141 23.6133 22.2461 24.9414 24.3359C25.1562 24.6875 25.1562 24.7852 24.9414 24.9609C24.7461 25.1367 24.4141 25.0195 23.5352 24.4922C22.207 23.6914 21.6797 23.6914 19.8828 24.4531C18.3398 25.1172 18.2422 25.2344 17.8711 26.7578C17.6172 27.8125 17.4609 28.125 17.1875 28.125C16.9141 28.125 16.7578 27.8125 16.5039 26.7578C16.1328 25.2344 16.0352 25.1172 14.4922 24.4531C12.7148 23.6914 12.168 23.6914 10.8203 24.4727C9.98047 24.9805 9.60938 25.0977 9.41406 24.9609C9.21875 24.7852 9.21875 24.668 9.43359 24.3359C10.7617 22.2461 10.8008 21.9141 9.92188 19.8828C9.25781 18.3398 9.14062 18.2422 7.61719 17.8711C6.5625 17.6172 6.25 17.4609 6.25 17.1875C6.25 16.9141 6.5625 16.7578 7.61719 16.5039C9.14062 16.1328 9.25781 16.0352 9.92188 14.4922C10.4688 13.2227 10.6836 12.0117 10.4102 11.6602C10.3125 11.543 10 11.0156 9.70703 10.5273C9.29688 9.80469 9.23828 9.57031 9.43359 9.39453C9.62891 9.25781 9.98047 9.375 10.8398 9.88281C12.168 10.6836 12.6953 10.7031 14.5508 9.90234C15.8789 9.33594 16.2305 8.88672 16.582 7.32422C16.7773 6.50391 16.9141 6.25 17.1875 6.25C17.4609 6.25 17.6172 6.54297 17.8711 7.61719Z" fill="#141C3A"/>
<path d="M15.2344 11.25C12.4414 12.2656 10.7422 14.8438 10.9961 17.6758C11.2109 19.9414 12.3047 21.6016 14.2969 22.6758C15.4102 23.2812 15.6641 23.3398 17.1875 23.3398C18.7305 23.3398 18.9453 23.2812 20.1172 22.6367C24.6289 20.1562 24.4531 13.7305 19.8242 11.543C18.5547 10.9375 16.4648 10.8008 15.2344 11.25ZM18.418 14.3359C20.4492 15.1758 20.918 17.7539 19.3359 19.3359C18.0469 20.625 16.2891 20.6445 15.0195 19.3555C12.5977 16.9531 15.2734 13.0078 18.418 14.3359Z" fill="#141C3A"/>
<path d="M40.3516 9.58984C39.1406 9.88281 37.3633 10.918 36.5039 11.8555C36.0742 12.3242 35.4297 13.3008 35.0977 14.0234L34.4727 15.332L34.4141 20.1562L34.3359 25H33.6133C30.6641 25 28.125 27.5391 28.125 30.4688C28.125 32.4219 29.4336 34.5117 31.1328 35.3516C31.6211 35.5664 32.5586 35.8203 33.2227 35.8984L34.4531 36.0352L34.6875 37.3047C35.4883 41.582 38.3203 45.5859 42.0898 47.7734C43.7305 48.7305 43.7305 48.7305 43.75 49.5312C43.75 50.2344 43.6914 50.3711 43.2812 50.4688C43.0273 50.5273 42.3828 50.9766 41.8555 51.4453C41.3281 51.9336 39.0039 53.418 36.7188 54.7852C34.4141 56.1328 32.0703 57.5977 31.5039 58.0469C28.7109 60.1953 26.6602 63.3594 25.5273 67.2852C25.1758 68.5156 25.1172 69.3359 25.0391 75.293C24.9609 82.832 25.0391 83.5156 26.3867 85.5078C27.5977 87.3242 30.0586 88.8672 31.7773 88.8672C32.0898 88.8672 32.4219 88.9453 32.5391 89.0234C32.6758 89.1016 32.793 90.0195 32.832 91.4453L32.9102 93.75H18.0273H3.125V95.3125V96.875H50H96.875V95.3125V93.75H81.9727H67.0898L67.168 91.4453C67.2266 89.0234 67.3047 88.8672 68.2031 88.8672C69.8242 88.8672 72.2852 87.4023 73.457 85.7812C74.9414 83.6914 75.0391 83.0078 74.9609 75.3516C74.8828 69.3359 74.8242 68.5156 74.4727 67.2852C73.3398 63.3594 71.2891 60.1953 68.4961 58.0469C67.9297 57.5977 65.5859 56.1328 63.2812 54.7852C60.9961 53.418 58.6719 51.9336 58.1445 51.4453C57.6172 50.9766 56.9727 50.5273 56.7188 50.4688C56.3086 50.3711 56.25 50.2344 56.25 49.5117C56.25 48.7695 56.3086 48.6523 56.8359 48.4375C57.7734 48.0469 59.7266 46.6211 60.9766 45.3906C63.1641 43.2422 64.7656 40.2344 65.3125 37.3047L65.5469 36.0352L66.7773 35.8984C67.4414 35.8203 68.3789 35.5664 68.8672 35.3516C70.5664 34.5117 71.875 32.4219 71.875 30.4688C71.875 27.5391 69.3359 25 66.3867 25H65.6641L65.5859 20.1562L65.5273 15.332L64.9023 14.0234C64.043 12.207 62.9492 11.0742 61.1719 10.1953L59.6875 9.47266L50.4102 9.43359C45.1758 9.41406 40.7812 9.49219 40.3516 9.58984ZM59.2578 12.7344C60.332 13.0469 61.9531 14.668 62.2656 15.7422C62.4023 16.25 62.5 17.8906 62.5 20.1172C62.5 23.3398 62.4609 23.6523 62.1875 23.418C61.4844 22.8516 61.0547 21.6016 60.9375 19.7656C60.8008 17.8516 60.5859 17.3242 59.4922 16.5234C58.7891 15.9766 57.5 16.0156 54.9805 16.6016C53.3594 16.9922 52.5 17.0703 50 17.0703C47.5 17.0703 46.6406 16.9922 45.0195 16.6016C42.5 16.0156 41.2109 15.9766 40.5078 16.5234C39.4141 17.3242 39.1992 17.8516 39.0625 19.7656C38.9453 21.6016 38.5156 22.8516 37.8125 23.418C37.5391 23.6523 37.5 23.3398 37.5 20.1172C37.5 17.8906 37.5977 16.25 37.7344 15.7422C38.0273 14.7461 39.668 13.0664 40.625 12.7539C41.6406 12.4414 58.1836 12.4219 59.2578 12.7344ZM44.7266 19.7656C47.4219 20.3711 52.4219 20.3516 55.2148 19.7656C56.3086 19.5312 57.3242 19.2773 57.4805 19.2188C57.6953 19.1406 57.7734 19.4336 57.8711 20.6836C58.0469 23.3594 59.5508 25.8789 61.6211 26.9727L62.5 27.4414V31.543C62.5 36.3867 62.2852 37.6562 61.0938 40.0391C59.4531 43.3008 56.1328 45.8594 52.5391 46.6016C47.1289 47.7344 41.3086 44.9414 38.8867 40.0195C37.7148 37.6367 37.5 36.3672 37.5 31.543V27.4414L38.3789 26.9727C40.4492 25.8789 41.9531 23.3594 42.1289 20.6836C42.2266 19.3555 42.2852 19.1406 42.5586 19.2383C42.7344 19.3164 43.7109 19.5508 44.7266 19.7656ZM34.375 30.4883V32.8711L33.4766 32.7539C32.1289 32.6172 31.3477 31.7578 31.3477 30.4883C31.3477 29.0625 32.2656 28.1641 33.75 28.1445L34.375 28.125V30.4883ZM68.0469 28.8867C68.5547 29.4141 68.6523 29.6484 68.6523 30.4688C68.6523 31.7578 67.8711 32.6172 66.5234 32.7539L65.625 32.8711V30.4688V28.0664L66.5234 28.1836C67.1875 28.2422 67.5977 28.4375 68.0469 28.8867ZM50 49.9805C50.8008 49.9805 51.8359 49.9023 52.3047 49.8242L53.125 49.668V50.3516C53.125 50.8984 52.832 51.4258 51.6211 53.0469C50.7812 54.1602 50.0586 55.0781 50 55.0781C49.9414 55.0781 49.2188 54.1602 48.3789 53.0469C47.168 51.4258 46.875 50.8984 46.875 50.3516V49.668L47.7148 49.8242C48.1641 49.9023 49.1992 49.9805 50 49.9805ZM46.0742 55.1758C46.8555 56.2109 47.5195 57.168 47.5781 57.3242C47.6562 57.4805 47.1484 57.9883 46.1914 58.7109C45.3906 59.3164 44.6875 59.7852 44.6484 59.7461C44.4922 59.5898 43.3594 55.4883 43.3594 55.0977C43.3594 54.3164 43.9648 53.418 44.5508 53.3398C44.6289 53.3203 45.3125 54.1602 46.0742 55.1758ZM55.7617 53.4375C56.1328 53.5938 56.6406 54.5117 56.6406 55.0977C56.6406 55.4883 55.5078 59.5898 55.3516 59.7461C55.3125 59.7852 54.6094 59.3164 53.8086 58.7109C52.8516 57.9883 52.3438 57.4805 52.4219 57.3242C52.5195 57.0312 55.2734 53.3203 55.3711 53.3203C55.4102 53.3203 55.5859 53.3789 55.7617 53.4375ZM41.4258 60C41.6406 60.7227 42.0312 61.582 42.3047 61.8945L42.793 62.4805L38.8086 62.5391C34.8242 62.5977 34.8242 62.5977 34.1406 63.125C32.8516 64.1016 32.8125 64.3359 32.8125 70.7812V76.5625H31.25H29.6875V78.125V79.6875H31.25H32.8125V82.8125V85.9375L32.1875 85.8008C30.5859 85.5078 29.3555 84.6289 28.6523 83.3203C28.2422 82.5391 28.2227 82.3633 28.2227 75.6836V68.8477L28.7305 67.3438C29.5312 65 30.5469 63.3594 32.3047 61.6016C33.6133 60.3125 34.4531 59.707 37.1094 58.1641L40.332 56.2891L40.6836 57.4805C40.8789 58.1445 41.2109 59.2773 41.4258 60ZM62.9688 58.2227C66.5234 60.293 68.1445 61.6797 69.5508 63.8281C71.5625 66.8945 71.875 68.5352 71.875 76.0352C71.875 79.3555 71.7969 82.0508 71.6797 82.4609C71.2305 84.0625 69.5508 85.5078 67.832 85.8203L67.1875 85.9375V82.8125V79.6875H68.75H70.3125V78.125V76.5625H68.75H67.1875V70.8008C67.1875 64.3359 67.1484 64.1016 65.8984 63.1641L65.1758 62.5977L61.1914 62.5391L57.207 62.4805L57.6953 61.8945C58.1641 61.3477 58.4766 60.4883 59.2969 57.4805C59.4727 56.8164 59.6875 56.2891 59.7461 56.3281C59.8047 56.3672 61.2695 57.207 62.9688 58.2227ZM51.7578 61.0742L53.5352 62.4023L51.7578 62.4609C50.8008 62.4805 49.1992 62.4805 48.2422 62.4609L46.4648 62.4023L48.1836 61.0938C49.1211 60.3711 49.9219 59.7852 49.9609 59.7852C49.9805 59.7656 50.8008 60.3516 51.7578 61.0742ZM64.0625 76.5625V87.5H50H35.9375V76.5625V65.625H50H64.0625V76.5625ZM64.0625 91.6992C64.0625 92.5977 63.9844 92.8711 63.5742 93.2617L63.1055 93.75H50H36.8945L36.4258 93.2617C36.0156 92.8711 35.9375 92.5977 35.9375 91.6992V90.625H50H64.0625V91.6992Z" fill="#141C3A"/>
<path d="M42.4805 28.3985C40.5078 29.2579 40.0391 31.875 41.582 33.418C43.7695 35.625 47.3633 33.6524 46.7969 30.5665C46.4453 28.7305 44.2383 27.6172 42.4805 28.3985Z" fill="#141C3A"/>
<path d="M54.9805 28.3985C53.0078 29.2579 52.5391 31.875 54.082 33.418C56.2695 35.625 59.8633 33.6524 59.2969 30.5665C58.9453 28.7305 56.7383 27.6172 54.9805 28.3985Z" fill="#141C3A"/>
<path d="M45.9375 38.9844C45.4297 39.5898 45.0195 40.1758 45.0195 40.293C45.0195 40.4297 45.7031 40.8789 46.5625 41.3086C48.0469 42.0703 48.1641 42.0898 50 42.0898C51.8359 42.0898 51.9531 42.0703 53.4375 41.3086C54.2969 40.8789 54.9805 40.4297 54.9805 40.293C54.9805 40.1758 54.5703 39.5898 54.0625 38.9844L53.125 37.9102L52.207 38.4375C51.4648 38.8672 51.0156 38.9648 50 38.9648C48.9844 38.9648 48.5352 38.8672 47.793 38.4375L46.875 37.9102L45.9375 38.9844Z" fill="#141C3A"/>
<path d="M48.4375 72.1289C47.4805 72.4414 45.8398 74.1211 45.5469 75.1172C45 76.9531 45.3906 78.4179 46.7773 79.7851C48.1445 81.1718 49.6094 81.5625 51.4453 81.0156C52.5195 80.7031 54.1406 79.082 54.4531 78.0078C55 76.1718 54.6094 74.707 53.2227 73.3398C51.8555 71.9531 50.2539 71.5625 48.4375 72.1289ZM51.0742 75.4883C52.0508 76.4453 51.3672 78.125 50 78.125C49.6289 78.125 49.2187 77.9492 48.9258 77.6367C48.6133 77.3437 48.4375 76.9336 48.4375 76.5625C48.4375 76.1914 48.6133 75.7812 48.9258 75.4883C49.2187 75.1758 49.6289 75 50 75C50.3711 75 50.7812 75.1758 51.0742 75.4883Z" fill="#141C3A"/>
<path d="M82.8711 16.7969L81.2891 23.0469L82.1094 23.2618C82.5391 23.3594 83.2031 23.5352 83.5742 23.6329C83.9453 23.7305 84.2773 23.7891 84.2969 23.7696C84.3359 23.75 85.0391 20.9375 85.8984 17.5391C87.2461 12.1485 87.4024 11.3282 87.1289 11.25C86.9531 11.1914 86.4258 11.0547 85.9375 10.9375C85.4492 10.8204 84.9219 10.6836 84.7461 10.625C84.4727 10.5469 84.1797 11.543 82.8711 16.7969Z" fill="#141C3A"/>
<path d="M74.3555 14.0234C71.0742 17.3438 71.0742 17.0312 74.414 20.3906L76.9531 22.9492L78.0664 21.8359L79.1992 20.7031L77.4414 18.9453L75.6836 17.1875L77.4023 15.4688C78.3398 14.5312 79.1015 13.6719 79.1015 13.5547C79.1015 13.3008 77.2851 11.5234 77.0312 11.5234C76.9336 11.5234 75.7226 12.6562 74.3555 14.0234Z" fill="#141C3A"/>
<path d="M90.5664 12.4609C90.0586 12.9688 89.6484 13.4766 89.6484 13.5742C89.6484 13.6719 90.4102 14.5312 91.3477 15.4688L93.0664 17.1875L91.3086 18.9453L89.5508 20.7031L90.6836 21.8359L91.7969 22.9492L94.3359 20.3906C97.6758 17.0312 97.6758 17.3438 94.3945 14.0234C93.0273 12.6562 91.8164 11.5234 91.6992 11.5234C91.582 11.5234 91.0742 11.9531 90.5664 12.4609Z" fill="#141C3A"/>
<path d="M14.0625 39.2383V44.1016L13.4766 44.3359C12.1484 44.8828 10.9375 46.8555 10.9375 48.4375C10.9375 50.8594 13.2031 53.125 15.625 53.125C17.207 53.125 19.1797 51.9141 19.7266 50.5859L19.9609 50H24.043H28.125V48.4375V46.875H24.043C20.0391 46.875 19.9414 46.8555 19.8242 46.4648C19.6289 45.8398 18.4375 44.6094 17.7734 44.3359L17.1875 44.1016V39.2383V34.375H15.625H14.0625V39.2383ZM16.6992 47.3633C17.6758 48.3203 16.9922 50 15.625 50C14.8242 50 14.0625 49.2383 14.0625 48.4375C14.0625 47.6367 14.8242 46.875 15.625 46.875C15.9961 46.875 16.4062 47.0508 16.6992 47.3633Z" fill="#141C3A"/>
<path d="M82.8125 39.2383V44.1016L82.2266 44.3359C81.5625 44.6094 80.3711 45.8398 80.1758 46.4648C80.0586 46.8555 79.9609 46.875 75.957 46.875H71.875V48.4375V50H75.957H80.0391L80.2734 50.5859C80.8203 51.9141 82.793 53.125 84.375 53.125C86.7969 53.125 89.0625 50.8594 89.0625 48.4375C89.0625 46.8555 87.8516 44.8828 86.5234 44.3359L85.9375 44.1016V39.2383V34.375H84.375H82.8125V39.2383ZM85.4492 47.3633C85.7617 47.6562 85.9375 48.0664 85.9375 48.4375C85.9375 48.8086 85.7617 49.2188 85.4492 49.5117C85.1562 49.8242 84.7461 50 84.375 50C84.0039 50 83.5938 49.8242 83.3008 49.5117C82.9883 49.2188 82.8125 48.8086 82.8125 48.4375C82.8125 48.0664 82.9883 47.6562 83.3008 47.3633C83.5938 47.0508 84.0039 46.875 84.375 46.875C84.7461 46.875 85.1562 47.0508 85.4492 47.3633Z" fill="#141C3A"/>
</svg>
