<svg id="svg" xmlns="http://www.w3.org/2000/svg" xmlns:xlink="http://www.w3.org/1999/xlink" width="400" height="400" viewBox="0, 0, 400,400"><g id="svgg"><path id="path0" d="M206.120 0.875 C 123.034 9.524,63.776 71.418,53.773 160.000 C 52.511 171.171,46.079 187.204,5.700 279.837 C 2.565 287.029,0.000 293.177,0.000 293.499 C 0.000 293.895,7.922 294.085,24.507 294.085 L 49.014 294.085 49.014 346.761 L 49.014 399.437 166.257 399.437 C 259.820 399.437,283.447 399.294,283.233 398.732 C 283.085 398.345,280.633 389.535,277.782 379.155 C 274.932 368.775,272.219 358.951,271.753 357.324 L 270.906 354.366 182.214 354.366 L 93.521 354.366 93.521 304.517 L 93.521 254.667 79.249 254.517 L 64.978 254.366 82.933 210.986 L 100.889 167.606 101.696 159.458 C 105.356 122.515,115.526 99.304,137.261 78.290 C 207.468 10.410,326.419 50.230,344.571 147.688 C 350.624 180.189,337.774 224.295,315.027 249.093 C 313.424 250.841,312.113 252.638,312.113 253.087 C 312.113 253.706,333.093 326.943,353.028 395.915 L 353.883 398.873 375.533 398.873 C 390.843 398.873,397.183 398.693,397.183 398.256 C 397.183 397.917,389.197 367.663,379.437 331.026 C 369.676 294.389,361.696 264.053,361.704 263.615 C 361.712 263.176,363.379 260.282,365.409 257.183 C 398.735 206.319,397.634 125.513,362.924 74.930 C 326.934 22.479,267.632 -5.528,206.120 0.875 M209.014 57.154 C 188.261 59.861,171.381 66.838,155.987 79.072 C 129.425 100.182,117.335 122.391,113.313 157.465 C 112.267 166.587,112.062 167.431,109.008 175.211 C 97.757 203.869,83.099 243.287,83.532 243.720 C 83.760 243.948,100.095 244.996,104.366 245.056 C 105.298 245.070,105.352 247.799,105.352 294.366 L 105.352 343.662 186.696 343.662 L 268.040 343.662 264.227 330.563 C 262.129 323.359,259.203 313.345,257.723 308.310 L 255.032 299.155 202.446 299.155 L 149.859 299.155 149.859 254.930 L 149.859 210.704 145.634 210.704 C 143.310 210.704,141.408 210.592,141.408 210.455 C 141.408 210.075,147.500 193.331,152.622 179.629 C 156.210 170.031,157.185 166.786,157.194 164.418 C 157.261 146.318,169.685 124.098,186.050 112.809 C 212.747 94.391,251.206 98.190,271.012 121.202 C 299.665 154.494,293.850 199.990,257.887 223.894 C 254.246 226.314,251.268 228.561,251.268 228.888 C 251.268 229.622,254.532 241.355,268.542 290.986 C 282.471 340.329,288.407 361.780,293.797 382.254 C 296.163 391.239,298.201 398.908,298.327 399.296 C 298.505 399.844,303.558 400.000,321.079 400.000 L 343.601 400.000 342.816 397.324 C 342.384 395.852,332.401 361.794,320.630 321.639 L 299.229 248.630 303.885 243.892 C 336.655 210.547,343.639 152.622,319.734 112.441 C 296.835 73.951,251.976 51.551,209.014 57.154 M217.183 124.346 C 184.923 128.808,168.790 166.803,187.832 193.471 C 207.720 221.322,252.025 215.562,264.068 183.560 C 275.799 152.385,250.004 119.807,217.183 124.346 " stroke="none" fill="#141C3A" fill-rule="evenodd"></path></g></svg>