<svg width="100" height="96" viewBox="0 0 100 96" fill="none" xmlns="http://www.w3.org/2000/svg">
<path d="M93.9088 41.3487V33.1186H100V16.5994H89.6428L49.9998 0.559204L10.3572 16.5994H0V33.1188H6.09121V41.3489H9.06172V70.6914H6.09121V78.9215H0V95.4408H100V78.9215H93.9088V70.6914H90.9383V41.3487H93.9088ZM49.9998 6.96799L73.8033 16.5992H26.1967L49.9998 6.96799ZM93.9088 84.8621H94.0592V89.4998H5.94082V84.8621H6.09121H93.9088ZM74.0275 35.408H69.2832H52.3723H47.6277H30.7168H25.9725H12.032V33.1188H87.968V35.408H74.0275ZM84.9975 41.3487V70.6912H79.9684V41.3487H84.9975ZM74.0273 41.3487V70.6912H69.283V41.3487H74.0273ZM63.3424 41.3487V70.6912H58.3133V41.3487H63.3424ZM47.6277 41.3487H52.3723V70.6912H47.6277V41.3487ZM41.6869 41.3487V70.6912H36.6578V41.3487H41.6869ZM30.7168 41.3487V70.6912H25.9725V41.3487H30.7168ZM20.0316 41.3487V70.6912H15.0025V41.3487H20.0316ZM25.9725 76.632H30.7168H47.6277H52.3723H69.2832H74.0275H87.968V78.9213H12.032V76.632H25.9725ZM6.09121 27.178H5.94082V22.5403H94.0592V27.178H93.9088H6.09121Z" fill="#141C3A"/>
</svg>
