<svg width="650" height="266" viewBox="0 0 650 266" fill="none" xmlns="http://www.w3.org/2000/svg">
<g clip-path="url(#clip0_53_868)">
<path fill-rule="evenodd" clip-rule="evenodd" d="M126.008 42.1982C126.008 38.1715 129.264 34.9148 133.298 34.9148H386.872C390.899 34.9148 394.162 38.1737 394.162 42.1982V215.741C394.162 219.767 390.906 223.024 386.872 223.024H133.298C129.271 223.024 126.008 219.765 126.008 215.741V42.1982Z" fill="white" stroke="#405ABA" stroke-width="2.08143"/>
<path fill-rule="evenodd" clip-rule="evenodd" d="M142.41 54.1697C142.41 52.4455 143.813 51.0459 145.536 51.0459H374.374C376.103 51.0459 377.5 52.4376 377.5 54.1697V183.475C377.5 185.199 376.097 186.599 374.374 186.599H145.536C143.807 186.599 142.41 185.207 142.41 183.475V54.1697Z" fill="white" stroke="#405ABA" stroke-width="2.08143"/>
<path fill-rule="evenodd" clip-rule="evenodd" d="M240.99 223.024H279.441L282.037 256.587H238.394L240.99 223.024Z" fill="white" stroke="#405ABA" stroke-width="2.08143"/>
<path fill-rule="evenodd" clip-rule="evenodd" d="M222.334 263.875V260.36C222.334 258.279 224.024 256.587 226.104 256.587H294.326C296.402 256.587 298.096 258.28 298.096 260.36V263.875C298.096 264.02 297.984 264.132 297.835 264.132H222.596C222.45 264.132 222.334 264.017 222.334 263.875Z" fill="white" stroke="#405ABA" stroke-width="2.08143"/>
<path d="M260.215 211.056C262.875 211.056 265.032 208.901 265.032 206.243C265.032 203.584 262.875 201.429 260.215 201.429C257.555 201.429 255.399 203.584 255.399 206.243C255.399 208.901 257.555 211.056 260.215 211.056Z" stroke="#405ABA" stroke-width="2.08143"/>
<path d="M146.578 163.183H107.519C104.071 163.183 101.275 165.979 101.275 169.427V257.888C101.275 261.337 104.071 264.132 107.519 264.132H146.578C150.026 264.132 152.822 261.337 152.822 257.888V169.427C152.822 165.979 150.026 163.183 146.578 163.183Z" fill="white" stroke="#405ABA" stroke-width="2.08143"/>
<path fill-rule="evenodd" clip-rule="evenodd" d="M101.275 174.371H152.822V249.12H101.275V174.371Z" fill="white" stroke="#405ABA" stroke-width="2.08143"/>
<path d="M138.504 167.606H115.853C115.278 167.606 114.812 168.072 114.812 168.647C114.812 169.221 115.278 169.687 115.853 169.687H138.504C139.079 169.687 139.545 169.221 139.545 168.647C139.545 168.072 139.079 167.606 138.504 167.606Z" fill="#405ABA"/>
<path d="M127.155 253.465H127.151C125.513 253.465 124.185 254.793 124.185 256.431C124.185 258.069 125.513 259.397 127.151 259.397H127.155C128.793 259.397 130.121 258.069 130.121 256.431C130.121 254.793 128.793 253.465 127.155 253.465Z" fill="#405ABA"/>
<path d="M115.854 215.479C118.011 215.479 119.759 213.732 119.759 211.576C119.759 209.421 118.011 207.673 115.854 207.673C113.697 207.673 111.949 209.421 111.949 211.576C111.949 213.732 113.697 215.479 115.854 215.479Z" fill="white" stroke="#405ABA" stroke-width="2.08143"/>
<path d="M142.149 204.812H126.007C125.432 204.812 124.966 205.277 124.966 205.852C124.966 206.427 125.432 206.893 126.007 206.893H142.149C142.724 206.893 143.19 206.427 143.19 205.852C143.19 205.277 142.724 204.812 142.149 204.812Z" fill="#405ABA"/>
<path d="M136.942 210.535H126.007C125.432 210.535 124.966 211.001 124.966 211.576C124.966 212.151 125.432 212.617 126.007 212.617H136.942C137.517 212.617 137.983 212.151 137.983 211.576C137.983 211.001 137.517 210.535 136.942 210.535Z" fill="#405ABA"/>
<path d="M131.736 216.259H126.007C125.432 216.259 124.966 216.725 124.966 217.3C124.966 217.875 125.432 218.341 126.007 218.341H131.736C132.31 218.341 132.776 217.875 132.776 217.3C132.776 216.725 132.31 216.259 131.736 216.259Z" fill="#405ABA"/>
<path d="M74.8493 212.097C96.9207 212.097 114.813 194.216 114.813 172.159C114.813 150.102 96.9207 132.222 74.8493 132.222C52.778 132.222 34.8856 150.102 34.8856 172.159C34.8856 194.216 52.778 212.097 74.8493 212.097Z" fill="white" stroke="#405ABA" stroke-width="2.08143"/>
<path d="M506.115 123.896H325.949C322.501 123.896 319.705 126.692 319.705 130.14V246.96C319.705 250.409 322.501 253.205 325.949 253.205H506.115C509.564 253.205 512.359 250.409 512.359 246.96V130.14C512.359 126.692 509.564 123.896 506.115 123.896Z" fill="white" stroke="#405ABA" stroke-width="2.08143"/>
<path fill-rule="evenodd" clip-rule="evenodd" d="M306.426 253.459V258.669C306.426 261.682 308.874 264.132 311.888 264.132H520.176C523.187 264.132 525.638 261.683 525.638 258.669V253.459C525.638 253.317 525.525 253.205 525.379 253.205H306.685C306.539 253.205 306.426 253.317 306.426 253.459Z" fill="white" stroke="#405ABA" stroke-width="2.08143"/>
<path fill-rule="evenodd" clip-rule="evenodd" d="M430.429 253.322L401.27 253.321C402.434 256.395 405.402 258.525 408.808 258.525H422.891C426.297 258.525 429.265 256.395 430.429 253.322Z" fill="white" stroke="#405ABA" stroke-width="2.08143"/>
<path d="M501.533 136.124H330.376C329.227 136.124 328.295 137.056 328.295 138.206V239.116C328.295 240.266 329.227 241.197 330.376 241.197H501.533C502.683 241.197 503.615 240.266 503.615 239.116V138.206C503.615 137.056 502.683 136.124 501.533 136.124Z" fill="white" stroke="#405ABA" stroke-width="2.08143"/>
<path d="M254.358 54.6884C255.076 54.6884 255.659 54.1059 255.659 53.3875C255.659 52.669 255.076 52.0866 254.358 52.0866C253.639 52.0866 253.056 52.669 253.056 53.3875C253.056 54.1059 253.639 54.6884 254.358 54.6884Z" fill="#405ABA"/>
<path fill-rule="evenodd" clip-rule="evenodd" d="M179.899 15.4014H300.178V130.661C300.178 134.682 296.909 137.946 292.886 137.946H187.191C183.166 137.946 179.899 134.681 179.899 130.661V15.4014Z" fill="white" stroke="#405ABA" stroke-width="2.08143"/>
<path fill-rule="evenodd" clip-rule="evenodd" d="M179.899 9.67092C179.899 5.65279 183.169 2.39246 187.191 2.39246H292.886C296.913 2.39246 300.178 5.6493 300.178 9.67092V17.4828H179.899V9.67092Z" fill="white" stroke="#405ABA" stroke-width="2.08143"/>
<path d="M191.094 12.2793C192.388 12.2793 193.437 11.2309 193.437 9.93765C193.437 8.64441 192.388 7.59604 191.094 7.59604C189.8 7.59604 188.751 8.64441 188.751 9.93765C188.751 11.2309 189.8 12.2793 191.094 12.2793Z" fill="#405ABA"/>
<path d="M198.904 12.2793C200.198 12.2793 201.247 11.2309 201.247 9.93765C201.247 8.64441 200.198 7.59604 198.904 7.59604C197.61 7.59604 196.561 8.64441 196.561 9.93765C196.561 11.2309 197.61 12.2793 198.904 12.2793Z" fill="#405ABA"/>
<path d="M206.714 12.2793C208.008 12.2793 209.057 11.2309 209.057 9.93765C209.057 8.64441 208.008 7.59604 206.714 7.59604C205.42 7.59604 204.371 8.64441 204.371 9.93765C204.371 11.2309 205.42 12.2793 206.714 12.2793Z" fill="#405ABA"/>
<path d="M198.124 91.3736H195.519C194.944 91.3736 194.478 91.8395 194.478 92.4143C194.478 92.9891 194.944 93.455 195.519 93.455H198.124C198.698 93.455 199.164 92.9891 199.164 92.4143C199.164 91.8395 198.698 91.3736 198.124 91.3736Z" fill="#405ABA"/>
<path d="M198.124 39.3378H195.519C194.944 39.3378 194.478 39.8038 194.478 40.3785C194.478 40.9533 194.944 41.4193 195.519 41.4193H198.124C198.698 41.4193 199.164 40.9533 199.164 40.3785C199.164 39.8038 198.698 39.3378 198.124 39.3378Z" fill="#405ABA"/>
<path fill-rule="evenodd" clip-rule="evenodd" d="M203.329 39.3378H210.36C210.935 39.3378 211.401 39.8038 211.401 40.3785C211.401 40.9533 210.935 41.4193 210.36 41.4193H203.329C202.754 41.4193 202.288 40.9533 202.288 40.3785C202.288 39.8038 202.754 39.3378 203.329 39.3378Z" fill="#405ABA"/>
<path fill-rule="evenodd" clip-rule="evenodd" d="M215.045 39.3378H222.075C222.65 39.3378 223.116 39.8038 223.116 40.3785C223.116 40.9533 222.65 41.4193 222.075 41.4193H215.045C214.47 41.4193 214.004 40.9533 214.004 40.3785C214.004 39.8038 214.47 39.3378 215.045 39.3378Z" fill="#405ABA"/>
<path fill-rule="evenodd" clip-rule="evenodd" d="M226.76 39.3378H239.779C240.354 39.3378 240.82 39.8038 240.82 40.3785C240.82 40.9533 240.354 41.4193 239.779 41.4193H226.76C226.186 41.4193 225.72 40.9533 225.72 40.3785C225.72 39.8038 226.186 39.3378 226.76 39.3378Z" fill="#405ABA"/>
<path fill-rule="evenodd" clip-rule="evenodd" d="M244.464 39.3378H263.731C264.305 39.3378 264.771 39.8038 264.771 40.3785C264.771 40.9533 264.305 41.4193 263.731 41.4193H244.464C243.889 41.4193 243.423 40.9533 243.423 40.3785C243.423 39.8038 243.889 39.3378 244.464 39.3378Z" fill="#405ABA"/>
<path d="M198.124 49.745H195.519C194.944 49.745 194.478 50.2109 194.478 50.7857C194.478 51.3605 194.944 51.8264 195.519 51.8264H198.124C198.698 51.8264 199.164 51.3605 199.164 50.7857C199.164 50.2109 198.698 49.745 198.124 49.745Z" fill="#405ABA"/>
<path d="M198.124 60.1521H195.519C194.944 60.1521 194.478 60.6181 194.478 61.1928C194.478 61.7676 194.944 62.2336 195.519 62.2336H198.124C198.698 62.2336 199.164 61.7676 199.164 61.1928C199.164 60.6181 198.698 60.1521 198.124 60.1521Z" fill="#405ABA"/>
<path d="M198.124 70.5593H195.519C194.944 70.5593 194.478 71.0252 194.478 71.6C194.478 72.1748 194.944 72.6407 195.519 72.6407H198.124C198.698 72.6407 199.164 72.1748 199.164 71.6C199.164 71.0252 198.698 70.5593 198.124 70.5593Z" fill="#405ABA"/>
<path d="M198.124 80.9664H195.519C194.944 80.9664 194.478 81.4324 194.478 82.0071C194.478 82.5819 194.944 83.0479 195.519 83.0479H198.124C198.698 83.0479 199.164 82.5819 199.164 82.0071C199.164 81.4324 198.698 80.9664 198.124 80.9664Z" fill="#405ABA"/>
<path d="M198.124 101.781H195.519C194.944 101.781 194.478 102.247 194.478 102.821C194.478 103.396 194.944 103.862 195.519 103.862H198.124C198.698 103.862 199.164 103.396 199.164 102.821C199.164 102.247 198.698 101.781 198.124 101.781Z" fill="#405ABA"/>
<path d="M198.124 112.188H195.519C194.944 112.188 194.478 112.654 194.478 113.229C194.478 113.803 194.944 114.269 195.519 114.269H198.124C198.698 114.269 199.164 113.803 199.164 113.229C199.164 112.654 198.698 112.188 198.124 112.188Z" fill="#405ABA"/>
<path d="M219.472 49.745H203.329C202.754 49.745 202.288 50.2109 202.288 50.7857C202.288 51.3605 202.754 51.8264 203.329 51.8264H219.472C220.047 51.8264 220.513 51.3605 220.513 50.7857C220.513 50.2109 220.047 49.745 219.472 49.745Z" fill="#405ABA"/>
<path d="M253.317 49.745H224.157C223.582 49.745 223.116 50.2109 223.116 50.7857C223.116 51.3605 223.582 51.8264 224.157 51.8264H253.317C253.892 51.8264 254.358 51.3605 254.358 50.7857C254.358 50.2109 253.892 49.745 253.317 49.745Z" fill="#405ABA"/>
<path d="M268.938 49.745H258.002C257.427 49.745 256.961 50.2109 256.961 50.7857C256.961 51.3605 257.427 51.8264 258.002 51.8264H268.938C269.512 51.8264 269.978 51.3605 269.978 50.7857C269.978 50.2109 269.512 49.745 268.938 49.745Z" fill="#405ABA"/>
<path d="M214.265 60.1521H203.329C202.754 60.1521 202.288 60.6181 202.288 61.1928C202.288 61.7676 202.754 62.2336 203.329 62.2336H214.265C214.84 62.2336 215.306 61.7676 215.306 61.1928C215.306 60.6181 214.84 60.1521 214.265 60.1521Z" fill="#405ABA"/>
<path d="M229.886 60.1521H218.95C218.375 60.1521 217.909 60.6181 217.909 61.1928C217.909 61.7676 218.375 62.2336 218.95 62.2336H229.886C230.461 62.2336 230.926 61.7676 230.926 61.1928C230.926 60.6181 230.461 60.1521 229.886 60.1521Z" fill="#405ABA"/>
<path d="M240.3 60.1521H234.571C233.996 60.1521 233.53 60.6181 233.53 61.1928C233.53 61.7676 233.996 62.2336 234.571 62.2336H240.3C240.874 62.2336 241.34 61.7676 241.34 61.1928C241.34 60.6181 240.874 60.1521 240.3 60.1521Z" fill="#405ABA"/>
<path d="M227.282 70.5593H203.329C202.754 70.5593 202.288 71.0252 202.288 71.6C202.288 72.1748 202.754 72.6407 203.329 72.6407H227.282C227.857 72.6407 228.323 72.1748 228.323 71.6C228.323 71.0252 227.857 70.5593 227.282 70.5593Z" fill="#405ABA"/>
<path d="M248.11 70.5593H231.967C231.392 70.5593 230.926 71.0252 230.926 71.6C230.926 72.1748 231.392 72.6407 231.967 72.6407H248.11C248.685 72.6407 249.151 72.1748 249.151 71.6C249.151 71.0252 248.685 70.5593 248.11 70.5593Z" fill="#405ABA"/>
<path d="M227.282 80.9664H203.329C202.754 80.9664 202.288 81.4324 202.288 82.0071C202.288 82.5819 202.754 83.0479 203.329 83.0479H227.282C227.857 83.0479 228.323 82.5819 228.323 82.0071C228.323 81.4324 227.857 80.9664 227.282 80.9664Z" fill="#405ABA"/>
<path d="M263.731 80.9664H231.967C231.392 80.9664 230.926 81.4324 230.926 82.0071C230.926 82.5819 231.392 83.0479 231.967 83.0479H263.731C264.305 83.0479 264.771 82.5819 264.771 82.0071C264.771 81.4324 264.305 80.9664 263.731 80.9664Z" fill="#405ABA"/>
<path d="M219.472 91.3736H203.329C202.754 91.3736 202.288 91.8395 202.288 92.4143C202.288 92.9891 202.754 93.455 203.329 93.455H219.472C220.047 93.455 220.513 92.9891 220.513 92.4143C220.513 91.8395 220.047 91.3736 219.472 91.3736Z" fill="#405ABA"/>
<path d="M240.3 91.3736H224.157C223.582 91.3736 223.116 91.8395 223.116 92.4143C223.116 92.9891 223.582 93.455 224.157 93.455H240.3C240.874 93.455 241.34 92.9891 241.34 92.4143C241.34 91.8395 240.874 91.3736 240.3 91.3736Z" fill="#405ABA"/>
<path d="M253.317 91.3736H244.984C244.41 91.3736 243.944 91.8395 243.944 92.4143C243.944 92.9891 244.41 93.455 244.984 93.455H253.317C253.892 93.455 254.358 92.9891 254.358 92.4143C254.358 91.8395 253.892 91.3736 253.317 91.3736Z" fill="#405ABA"/>
<path d="M235.093 101.781H203.329C202.754 101.781 202.288 102.247 202.288 102.821C202.288 103.396 202.754 103.862 203.329 103.862H235.093C235.667 103.862 236.133 103.396 236.133 102.821C236.133 102.247 235.667 101.781 235.093 101.781Z" fill="#405ABA"/>
<path d="M216.868 112.188H203.329C202.754 112.188 202.288 112.654 202.288 113.229C202.288 113.803 202.754 114.269 203.329 114.269H216.868C217.443 114.269 217.909 113.803 217.909 113.229C217.909 112.654 217.443 112.188 216.868 112.188Z" fill="#405ABA"/>
<path fill-rule="evenodd" clip-rule="evenodd" d="M414.991 97.0975H557.659V198.576C557.659 202.596 554.4 205.852 550.374 205.852H422.277C418.256 205.852 414.991 202.59 414.991 198.576V97.0975Z" fill="white" stroke="#405ABA" stroke-width="2.08143"/>
<path fill-rule="evenodd" clip-rule="evenodd" d="M414.991 91.3671C414.991 87.3459 418.251 84.0886 422.277 84.0886H550.374C554.398 84.0886 557.659 87.3456 557.659 91.3671V99.179H414.991V91.3671Z" fill="white" stroke="#405ABA" stroke-width="2.08143"/>
<path d="M426.186 93.9754C427.48 93.9754 428.529 92.927 428.529 91.6338C428.529 90.3405 427.48 89.2922 426.186 89.2922C424.892 89.2922 423.842 90.3405 423.842 91.6338C423.842 92.927 424.892 93.9754 426.186 93.9754Z" fill="#405ABA"/>
<path d="M433.996 93.9754C435.29 93.9754 436.339 92.927 436.339 91.6338C436.339 90.3405 435.29 89.2922 433.996 89.2922C432.702 89.2922 431.653 90.3405 431.653 91.6338C431.653 92.927 432.702 93.9754 433.996 93.9754Z" fill="#405ABA"/>
<path d="M441.806 93.9754C443.1 93.9754 444.149 92.927 444.149 91.6338C444.149 90.3405 443.1 89.2922 441.806 89.2922C440.512 89.2922 439.463 90.3405 439.463 91.6338C439.463 92.927 440.512 93.9754 441.806 93.9754Z" fill="#405ABA"/>
<path d="M503.248 177.493C517.626 177.493 529.282 165.844 529.282 151.475C529.282 137.106 517.626 125.457 503.248 125.457C488.869 125.457 477.213 137.106 477.213 151.475C477.213 165.844 488.869 177.493 503.248 177.493Z" fill="white" stroke="#405ABA" stroke-width="2.34161"/>
<path fill-rule="evenodd" clip-rule="evenodd" d="M500.383 122.335V128.579H506.633V122.335H500.383Z" fill="white" stroke="#405ABA" stroke-width="2.08143"/>
<path fill-rule="evenodd" clip-rule="evenodd" d="M500.123 174.371V180.615H506.373V174.371H500.123Z" fill="white" stroke="#405ABA" stroke-width="2.08143"/>
<path fill-rule="evenodd" clip-rule="evenodd" d="M474.089 148.613V154.857H480.338V148.613H474.089Z" fill="white" stroke="#405ABA" stroke-width="2.08143"/>
<path fill-rule="evenodd" clip-rule="evenodd" d="M525.897 148.613V154.857H532.147V148.613H525.897Z" fill="white" stroke="#405ABA" stroke-width="2.08143"/>
<path d="M529.282 128.059V147.572" stroke="#405ABA" stroke-width="2.08143" stroke-linecap="square"/>
<path d="M529.282 155.378V174.891" stroke="#405ABA" stroke-width="2.08143" stroke-linecap="square"/>
<path d="M529.282 130.4C531.008 130.4 532.407 129.003 532.407 127.278C532.407 125.554 531.008 124.156 529.282 124.156C527.557 124.156 526.158 125.554 526.158 127.278C526.158 129.003 527.557 130.4 529.282 130.4Z" fill="#405ABA"/>
<path d="M529.282 179.834C531.008 179.834 532.407 178.437 532.407 176.712C532.407 174.988 531.008 173.59 529.282 173.59C527.557 173.59 526.158 174.988 526.158 176.712C526.158 178.437 527.557 179.834 529.282 179.834Z" fill="#405ABA"/>
<path d="M453.525 119.993H443.626C441.902 119.993 440.504 121.391 440.504 123.115V133.002C440.504 134.727 441.902 136.124 443.626 136.124H453.525C455.249 136.124 456.647 134.727 456.647 133.002V123.115C456.647 121.391 455.249 119.993 453.525 119.993Z" fill="white" stroke="#405ABA" stroke-width="2.08143"/>
<path d="M453.525 143.409H443.626C441.902 143.409 440.504 144.807 440.504 146.531V156.418C440.504 158.143 441.902 159.54 443.626 159.54H453.525C455.249 159.54 456.647 158.143 456.647 156.418V146.531C456.647 144.807 455.249 143.409 453.525 143.409Z" fill="white" stroke="#405ABA" stroke-width="2.08143"/>
<path d="M453.525 166.825H443.626C441.902 166.825 440.504 168.223 440.504 169.948V179.834C440.504 181.559 441.902 182.957 443.626 182.957H453.525C455.249 182.957 456.647 181.559 456.647 179.834V169.948C456.647 168.223 455.249 166.825 453.525 166.825Z" fill="white" stroke="#405ABA" stroke-width="2.08143"/>
<path d="M632.379 255.026C641.006 255.026 648 248.037 648 239.415C648 230.794 641.006 223.805 632.379 223.805C623.752 223.805 616.759 230.794 616.759 239.415C616.759 248.037 623.752 255.026 632.379 255.026Z" fill="white" stroke="#405ABA" stroke-width="2.08143"/>
<path d="M632.379 248.522C637.412 248.522 641.491 244.445 641.491 239.415C641.491 234.386 637.412 230.309 632.379 230.309C627.347 230.309 623.267 234.386 623.267 239.415C623.267 244.445 627.347 248.522 632.379 248.522Z" fill="white" stroke="#405ABA" stroke-width="2.08143"/>
<path d="M611.552 220.943C614.427 220.943 616.759 218.613 616.759 215.739C616.759 212.865 614.427 210.535 611.552 210.535C608.676 210.535 606.345 212.865 606.345 215.739C606.345 218.613 608.676 220.943 611.552 220.943Z" fill="white" stroke="#405ABA" stroke-width="2.08143"/>
<path fill-rule="evenodd" clip-rule="evenodd" d="M588.64 214.438C588.065 214.438 587.599 214.904 587.599 215.479V259.189C587.599 262.063 589.929 264.392 592.803 264.392H628.72C631.594 264.392 633.924 262.063 633.924 259.189V215.479C633.924 214.904 633.458 214.438 632.883 214.438H588.64Z" fill="white" stroke="#405ABA" stroke-width="2.08143"/>
<path d="M620.146 228.488H612.851C611.126 228.488 609.729 229.886 609.729 231.61V242.017C609.729 243.741 611.126 245.139 612.851 245.139H620.146C621.87 245.139 623.268 243.741 623.268 242.017V231.61C623.268 229.886 621.87 228.488 620.146 228.488Z" fill="white" stroke="#405ABA" stroke-width="2.08143"/>
<path d="M616.368 214.828V226.667" stroke="#405ABA" stroke-width="2.08143" stroke-linecap="square"/>
<path fill-rule="evenodd" clip-rule="evenodd" d="M557.92 264.132C566.548 264.132 573.541 264.132 573.541 264.132C573.541 255.511 566.548 248.522 557.92 248.522C549.293 248.522 542.3 255.511 542.3 264.132C542.3 264.132 549.293 264.132 557.92 264.132Z" fill="white" stroke="#405ABA" stroke-width="2.08143"/>
<path d="M558.962 249.043C558.962 248.467 558.496 248.001 557.92 248.001C557.345 248.001 556.879 248.467 556.879 249.043V250.342C556.879 250.917 557.345 251.384 557.92 251.384C558.496 251.384 558.962 250.917 558.962 250.342V249.043Z" fill="#405ABA"/>
<path fill-rule="evenodd" clip-rule="evenodd" d="M16.3914 233.431C7.91344 233.431 1.04071 240.304 1.04071 248.782C1.04071 257.26 7.91344 264.132 16.3914 264.132H79.407C80.2692 264.132 80.9681 263.433 80.9681 262.571V260.155C80.9681 259.063 80.1237 258.156 79.0341 258.079C71.8804 257.571 68.0805 254.428 68.0805 248.782C68.0805 243.135 71.8804 239.992 79.0341 239.484C80.1237 239.407 80.9681 238.5 80.9681 237.408V234.992C80.9681 234.13 80.2692 233.431 79.407 233.431H16.3914Z" fill="white" stroke="#405ABA" stroke-width="2.08143"/>
<path d="M80.1864 258.733C80.1864 258.985 79.9822 259.189 79.7302 259.189H72.3534H16.1414C10.39 259.189 5.7276 254.529 5.7276 248.782C5.7276 243.034 10.39 238.375 16.1414 238.375H72.3534H79.7302C79.9822 238.375 80.1864 238.579 80.1864 238.831" stroke="#405ABA" stroke-width="2.08143"/>
<path d="M67.6905 244.359H15.0994C14.5246 244.359 14.0587 244.825 14.0587 245.399C14.0587 245.974 14.5246 246.44 15.0994 246.44H67.6905C68.2653 246.44 68.7312 245.974 68.7312 245.399C68.7312 244.825 68.2653 244.359 67.6905 244.359Z" fill="#405ABA"/>
<path d="M67.6905 250.863H15.0994C14.5246 250.863 14.0587 251.329 14.0587 251.904C14.0587 252.479 14.5246 252.945 15.0994 252.945H67.6905C68.2653 252.945 68.7312 252.479 68.7312 251.904C68.7312 251.329 68.2653 250.863 67.6905 250.863Z" fill="#405ABA"/>
<path d="M65.1265 181.488C63.8489 180.353 62.5712 179.218 61.2935 178.083C59.2574 176.276 57.2272 174.463 55.1911 172.656C54.7243 172.245 54.2576 171.828 53.7967 171.417C53.7967 171.961 53.7967 172.511 53.7967 173.056C55.0744 171.92 56.352 170.785 57.6297 169.65C59.6658 167.843 61.6961 166.03 63.7322 164.223C64.1989 163.812 64.6656 163.395 65.1265 162.984C65.5816 162.579 65.5758 161.75 65.1265 161.345C64.6423 160.899 63.9655 160.911 63.4755 161.345C62.1978 162.48 60.9201 163.615 59.6425 164.75C57.6064 166.557 55.5761 168.37 53.54 170.177C53.0733 170.588 52.6066 171.005 52.1457 171.417C51.6964 171.816 51.6964 172.656 52.1457 173.056C53.4233 174.191 54.701 175.326 55.9787 176.461C58.0148 178.268 60.045 180.081 62.0811 181.888C62.5479 182.299 63.0146 182.716 63.4755 183.127C63.9305 183.533 64.6831 183.608 65.1265 183.127C65.5349 182.687 65.6108 181.923 65.1265 181.488Z" fill="#405ABA"/>
<path d="M84.5826 162.987C85.8602 164.122 87.1379 165.257 88.4156 166.392C90.4517 168.199 92.482 170.012 94.5181 171.819C94.9848 172.23 95.4515 172.647 95.9124 173.058C95.9124 172.514 95.9124 171.964 95.9124 171.419C94.6347 172.555 93.3571 173.69 92.0794 174.825C90.0433 176.632 88.013 178.445 85.9769 180.252C85.5102 180.663 85.0435 181.08 84.5826 181.491C84.1275 181.896 84.1334 182.725 84.5826 183.13C85.0668 183.576 85.7436 183.564 86.2336 183.13C87.5113 181.995 88.789 180.86 90.0666 179.725C92.1027 177.918 94.133 176.105 96.1691 174.298C96.6358 173.887 97.1026 173.47 97.5634 173.058C98.0127 172.659 98.0127 171.819 97.5634 171.419C96.2858 170.284 95.0081 169.149 93.7304 168.014C91.6943 166.207 89.6641 164.394 87.628 162.587C87.1613 162.176 86.6945 161.759 86.2336 161.348C85.7786 160.942 85.026 160.867 84.5826 161.348C84.1742 161.788 84.0983 162.552 84.5826 162.987Z" fill="#405ABA"/>
<path d="M70.6937 188.309C71.0438 187.266 71.388 186.224 71.738 185.176C72.5723 182.668 73.4066 180.166 74.2408 177.658C75.2443 174.635 76.2478 171.617 77.2571 168.594C78.1264 165.982 78.9956 163.37 79.8649 160.758C80.2791 159.49 80.7459 158.227 81.1309 156.941C81.1367 156.924 81.1426 156.907 81.1484 156.889C81.3409 156.316 80.9267 155.598 80.3316 155.464C79.6899 155.32 79.1006 155.656 78.8965 156.275C78.5464 157.318 78.2022 158.36 77.8522 159.409C77.0179 161.916 76.1836 164.418 75.3493 166.926C74.3459 169.949 73.3424 172.967 72.3331 175.99C71.4638 178.602 70.5945 181.214 69.7253 183.826C69.311 185.089 68.8443 186.351 68.4593 187.637C68.4534 187.654 68.4476 187.672 68.4418 187.689C68.2492 188.263 68.6634 188.981 69.2585 189.114C69.9003 189.259 70.4895 188.923 70.6937 188.309Z" fill="#405ABA"/>
</g>
<defs>
<clipPath id="clip0_53_868">
<rect width="650" height="265" fill="white" transform="translate(0 0.433167)"/>
</clipPath>
</defs>
</svg>
