<svg width="150" height="150" viewBox="0 0 150 150" fill="none" xmlns="http://www.w3.org/2000/svg">
<rect y="0.00012207" width="150" height="150" rx="30" fill="#1C88C7"/>
<g clip-path="url(#clip0_53_735)">
<path d="M33.3733 114.524L24.9999 25.1678L125 25.3474L116.146 114.524L75.3773 124.832L33.3733 114.524Z" fill="#F5F5F5"/>
<path d="M75.3774 116.203V33.6781L116.558 33.7978L109.215 107.633L75.3774 116.203Z" fill="#F5F5F5"/>
<path d="M106.331 44.2262H42.9823L44.6984 55.013H74.7597L45.1791 66.1005L46.8944 76.5282H90.4774L88.8984 91.0909L74.1419 93.6084L60.7589 90.6121L59.7291 82.3413H47.4436L49.0904 99.5419L75.446 105.954L100.704 98.9427L103.93 65.321H77.2298L106.331 54.7736L106.331 44.2262Z" fill="#1C88C7"/>
</g>
<defs>
<clipPath id="clip0_53_735">
<rect width="100" height="100" fill="white" transform="translate(25 25.0001)"/>
</clipPath>
</defs>
</svg>
