<svg width="150" height="150" viewBox="0 0 150 150" fill="none" xmlns="http://www.w3.org/2000/svg">
<rect width="150" height="150" rx="30" fill="#DD512A"/>
<path d="M32.4685 25C31.5493 25 30.8645 25.749 30.9462 26.6643L38.6945 113.575C38.7761 114.49 39.5671 115.44 40.4531 115.686L73.3329 124.815C74.2187 125.061 75.6677 125.061 76.5537 124.816L109.534 115.672C110.419 115.426 111.211 114.476 111.293 113.561L119.054 26.6643C119.136 25.749 118.451 25 117.531 25H32.4685ZM102.553 44.9325C102.48 45.749 102.353 47.1663 102.271 48.0818L102.067 50.3621C101.985 51.2771 101.868 52.5859 101.806 53.2701C101.745 53.9545 101.686 54.5144 101.676 54.5144C101.665 54.5144 100.905 54.5144 99.9856 54.5144H76.6711C75.7519 54.5144 74.9923 54.5144 74.9824 54.5144C74.9724 54.5144 74.2121 54.5144 73.2929 54.5144H61.0139C60.0948 54.5144 59.41 55.2635 59.4917 56.1787L60.2079 64.1846C60.2895 65.0996 61.1087 65.8489 62.0276 65.8489H73.2931C74.2122 65.8489 74.9724 65.8489 74.9826 65.8489C74.9927 65.8489 75.7523 65.8489 76.6712 65.8489H96.035C96.9542 65.8489 98.3764 65.8489 99.1956 65.8489C100.014 65.8489 100.624 66.517 100.55 67.3335C100.475 68.1499 100.348 69.5676 100.266 70.4827L97.9632 96.2934C97.8809 97.2088 97.777 98.3782 97.7323 98.8922C97.6866 99.4059 96.9249 100.027 96.0391 100.273L76.6105 105.66C75.7248 105.905 74.989 106.108 74.9751 106.112C74.9615 106.115 74.2259 105.916 73.3398 105.67L53.8905 100.273C53.0047 100.028 52.2133 99.0776 52.1319 98.1621L50.8799 84.1103C50.7982 83.1949 51.4838 82.4458 52.4029 82.4458H54.178C55.0971 82.4458 56.601 82.4458 57.52 82.4458H60.1669C61.086 82.4458 61.9044 83.1949 61.9866 84.1103L62.4776 89.6111C62.5593 90.5266 63.3516 91.4713 64.2391 91.7109L73.3367 94.1678C74.2236 94.4074 74.9529 94.6035 74.957 94.6035C74.9611 94.6035 75.69 94.4071 76.5773 94.1674L85.6912 91.7047C86.5781 91.465 87.3713 90.5199 87.4535 89.6049L88.4418 78.5839C88.5241 77.6685 87.8393 76.9194 86.9201 76.9194H76.6712C75.7521 76.9194 74.9925 76.9194 74.9826 76.9194C74.9726 76.9194 74.2122 76.9194 73.2931 76.9194H51.9074C50.9883 76.9194 50.1699 76.1702 50.0883 75.2552L47.6633 48.082C47.5816 47.1665 47.4551 45.7495 47.3818 44.9327C47.3094 44.1163 48.0014 43.4482 48.9205 43.4482H73.2931C74.2122 43.4482 74.9724 43.4482 74.9826 43.4482C74.9927 43.4482 75.7523 43.4482 76.6712 43.4482H101.014C101.933 43.4478 102.626 44.1157 102.553 44.9325Z" fill="#F5F5F5"/>
</svg>
