<svg width="150" height="150" viewBox="0 0 150 150" fill="none" xmlns="http://www.w3.org/2000/svg">
<rect y="0.00012207" width="150" height="150" rx="30" fill="#FFC400"/>
<path d="M62.8125 32.3441H42.5V86.2987C42.5 99.6491 37.9216 103.377 29.954 103.377C26.2203 103.377 22.8578 102.737 20.2421 101.837L18.125 117.632C21.8574 118.917 27.5853 119.688 32.0662 119.688C50.3597 119.688 62.8125 111.088 62.8125 86.431V32.3441ZM107.11 30.3126C87.4465 30.3126 75 41.484 75 56.2502C75 68.9665 84.5852 76.9283 98.5221 82.0635C108.602 85.6583 112.587 88.8703 112.587 94.134C112.587 99.9119 107.981 103.636 99.2696 103.636C91.1794 103.636 83.8349 100.935 78.8571 98.2397V98.2343L75 114.286C79.7326 116.987 88.569 119.683 98.1479 119.683C121.174 119.683 131.875 107.355 131.875 92.8457C131.875 80.5185 125.03 72.5586 110.222 66.9058C99.2691 62.5409 94.6655 60.1024 94.6655 54.5807C94.6655 50.2135 98.6488 46.2351 106.864 46.2351C114.95 46.2351 120.51 48.9537 123.75 50.6254L128.606 34.3754C123.528 32.1458 116.688 30.3126 107.11 30.3126Z" fill="#F5F5F5"/>
</svg>
